<svg width="32" height="20" viewBox="0 0 32 20" fill="none" xmlns="http://www.w3.org/2000/svg">
<g clip-path="url(#clip0_634_5614)">
<path d="M12.7531 3.19454L12.003 1.31919C11.9418 1.16608 11.8508 1.02664 11.7353 0.908928C11.6198 0.791217 11.4821 0.697575 11.3302 0.63342C11.1783 0.569265 11.0152 0.53587 10.8503 0.535168C10.6854 0.534465 10.522 0.566469 10.3695 0.629328L9.51891 0.979096C6.69557 2.14182 4.22876 4.02851 2.36729 6.44886C1.78831 7.20049 1.37156 8.07119 1.22198 9.00886C1.17733 9.29091 1.13863 9.57593 1.11631 9.82375C1.06794 10.37 1.07166 11.0844 1.0858 11.6269C1.09919 12.162 1.11631 12.6963 1.11631 13.2314C1.11645 13.3453 1.15071 13.4565 1.21466 13.5508C1.27862 13.645 1.36934 13.7179 1.47513 13.7601C1.58092 13.8023 1.69692 13.8119 1.80819 13.7875C1.91946 13.7632 2.02088 13.7061 2.09938 13.6236L7.81398 7.59119C9.04563 6.11896 10.598 4.94822 12.352 4.16868C12.7241 4.00347 12.9042 3.57258 12.7531 3.19454ZM27.9249 3.00998L26.9887 1.22096C26.9123 1.0748 26.8076 0.945245 26.6808 0.839805C26.5539 0.734364 26.4074 0.655126 26.2498 0.606679C26.0921 0.558231 25.9264 0.541536 25.7623 0.557559C25.5981 0.573582 25.4387 0.622005 25.2934 0.700026L24.483 1.13463C21.792 2.57724 19.529 4.70393 17.9223 7.30021C17.4229 8.10765 17.0962 9.01482 17.0426 9.96291C17.027 10.2479 17.0166 10.5359 17.0203 10.7852C17.0225 10.978 17.0337 11.1908 17.0501 11.4096C17.1476 12.7246 17.4869 14.0068 17.891 15.2623C17.9211 15.356 17.9775 15.4392 18.0534 15.502C18.1293 15.5648 18.2216 15.6045 18.3193 15.6165C18.4171 15.6285 18.5163 15.6122 18.6051 15.5696C18.6939 15.527 18.7686 15.4599 18.8205 15.3761L23.4568 7.88514C24.5328 6.29557 25.9583 4.97337 27.6242 4.01984C27.9777 3.81817 28.1131 3.37017 27.9249 3.00998Z" fill="white" stroke="white" stroke-width="0.744186"/>
<path d="M7.81397 19.1262C11.7185 19.1262 14.8837 16.4607 14.8837 13.1727C14.8837 9.88471 11.7185 7.21924 7.81397 7.21924C3.90944 7.21924 0.744202 9.88471 0.744202 13.1727C0.744202 16.4607 3.90944 19.1262 7.81397 19.1262Z" fill="white"/>
<path d="M31.6279 12.8007C31.6279 16.0892 28.835 19.4983 24.9302 19.4983C21.0255 19.4983 17.1163 16.8334 17.1163 13.5448C17.1163 10.257 21.3976 6.84717 25.3023 6.84717C29.2071 6.84717 31.6279 9.51284 31.6279 12.8007Z" fill="white"/>
</g>
<defs>
<clipPath id="clip0_634_5614">
<rect width="32" height="20" fill="white"/>
</clipPath>
</defs>
</svg>
