<svg width="48" height="49" viewBox="0 0 48 49" fill="none" xmlns="http://www.w3.org/2000/svg">
<path opacity="0.2" d="M39 14V35H9V14H39Z" fill="#B8EF43"/>
<path d="M16.5 27.5V24.5C16.5 24.1022 16.658 23.7206 16.9393 23.4393C17.2206 23.158 17.6022 23 18 23C18.3978 23 18.7794 23.158 19.0607 23.4393C19.342 23.7206 19.5 24.1022 19.5 24.5V27.5C19.5 27.8978 19.342 28.2794 19.0607 28.5607C18.7794 28.842 18.3978 29 18 29C17.6022 29 17.2206 28.842 16.9393 28.5607C16.658 28.2794 16.5 27.8978 16.5 27.5ZM24 29C24.3978 29 24.7794 28.842 25.0607 28.5607C25.342 28.2794 25.5 27.8978 25.5 27.5V23C25.5 22.6022 25.342 22.2206 25.0607 21.9393C24.7794 21.658 24.3978 21.5 24 21.5C23.6022 21.5 23.2206 21.658 22.9393 21.9393C22.658 22.2206 22.5 22.6022 22.5 23V27.5C22.5 27.8978 22.658 28.2794 22.9393 28.5607C23.2206 28.842 23.6022 29 24 29ZM30 29C30.3978 29 30.7794 28.842 31.0607 28.5607C31.342 28.2794 31.5 27.8978 31.5 27.5V21.5C31.5 21.1022 31.342 20.7206 31.0607 20.4393C30.7794 20.158 30.3978 20 30 20C29.6022 20 29.2206 20.158 28.9393 20.4393C28.658 20.7206 28.5 21.1022 28.5 21.5V27.5C28.5 27.8978 28.658 28.2794 28.9393 28.5607C29.2206 28.842 29.6022 29 30 29ZM40.5 15.5V33.5H42C42.3978 33.5 42.7794 33.658 43.0607 33.9393C43.342 34.2206 43.5 34.6022 43.5 35C43.5 35.3978 43.342 35.7794 43.0607 36.0607C42.7794 36.342 42.3978 36.5 42 36.5H25.5V39.7587C26.5008 40.1126 27.3443 40.8089 27.8814 41.7245C28.4186 42.6401 28.6147 43.7161 28.4352 44.7623C28.2557 45.8086 27.7121 46.7577 26.9005 47.4419C26.0889 48.1261 25.0615 48.5014 24 48.5014C22.9385 48.5014 21.9111 48.1261 21.0995 47.4419C20.2879 46.7577 19.7443 45.8086 19.5648 44.7623C19.3853 43.7161 19.5814 42.6401 20.1186 41.7245C20.6557 40.8089 21.4992 40.1126 22.5 39.7587V36.5H6C5.60218 36.5 5.22064 36.342 4.93934 36.0607C4.65804 35.7794 4.5 35.3978 4.5 35C4.5 34.6022 4.65804 34.2206 4.93934 33.9393C5.22064 33.658 5.60218 33.5 6 33.5H7.5V15.5C6.70435 15.5 5.94129 15.1839 5.37868 14.6213C4.81607 14.0587 4.5 13.2956 4.5 12.5V9.5C4.5 8.70435 4.81607 7.94129 5.37868 7.37868C5.94129 6.81607 6.70435 6.5 7.5 6.5H40.5C41.2957 6.5 42.0587 6.81607 42.6213 7.37868C43.1839 7.94129 43.5 8.70435 43.5 9.5V12.5C43.5 13.2956 43.1839 14.0587 42.6213 14.6213C42.0587 15.1839 41.2957 15.5 40.5 15.5ZM25.5 44C25.5 43.7033 25.412 43.4133 25.2472 43.1666C25.0824 42.92 24.8481 42.7277 24.574 42.6142C24.2999 42.5006 23.9983 42.4709 23.7074 42.5288C23.4164 42.5867 23.1491 42.7296 22.9393 42.9393C22.7296 43.1491 22.5867 43.4164 22.5288 43.7074C22.4709 43.9983 22.5006 44.2999 22.6142 44.574C22.7277 44.8481 22.92 45.0824 23.1666 45.2472C23.4133 45.412 23.7033 45.5 24 45.5C24.3978 45.5 24.7794 45.342 25.0607 45.0607C25.342 44.7794 25.5 44.3978 25.5 44ZM7.5 12.5H40.5V9.5H7.5V12.5ZM37.5 15.5H10.5V33.5H37.5V15.5Z" fill="#B8EF43"/>
</svg>
