<svg width="48" height="49" viewBox="0 0 48 49" fill="none" xmlns="http://www.w3.org/2000/svg">
<path opacity="0.2" d="M31.5 27.5C31.5 28.9834 31.0601 30.4334 30.236 31.6668C29.4119 32.9001 28.2406 33.8614 26.8701 34.4291C25.4997 34.9968 23.9917 35.1453 22.5368 34.8559C21.082 34.5665 19.7456 33.8522 18.6967 32.8033C17.6478 31.7544 16.9335 30.418 16.6441 28.9632C16.3547 27.5083 16.5032 26.0003 17.0709 24.6299C17.6386 23.2594 18.5999 22.0881 19.8332 21.264C21.0666 20.4399 22.5166 20 24 20C25.9891 20 27.8968 20.7902 29.3033 22.1967C30.7098 23.6032 31.5 25.5109 31.5 27.5ZM12 11C10.8133 11 9.65328 11.3519 8.66658 12.0112C7.67989 12.6705 6.91085 13.6075 6.45673 14.7039C6.0026 15.8003 5.88378 17.0067 6.11529 18.1705C6.3468 19.3344 6.91825 20.4035 7.75736 21.2426C8.59648 22.0818 9.66557 22.6532 10.8295 22.8847C11.9933 23.1162 13.1997 22.9974 14.2961 22.5433C15.3925 22.0892 16.3295 21.3201 16.9888 20.3334C17.6481 19.3467 18 18.1867 18 17C18 15.4087 17.3679 13.8826 16.2426 12.7574C15.1174 11.6321 13.5913 11 12 11ZM36 11C34.8133 11 33.6533 11.3519 32.6666 12.0112C31.6799 12.6705 30.9109 13.6075 30.4567 14.7039C30.0026 15.8003 29.8838 17.0067 30.1153 18.1705C30.3468 19.3344 30.9182 20.4035 31.7574 21.2426C32.5965 22.0818 33.6656 22.6532 34.8295 22.8847C35.9933 23.1162 37.1997 22.9974 38.2961 22.5433C39.3925 22.0892 40.3295 21.3201 40.9888 20.3334C41.6481 19.3467 42 18.1867 42 17C42 15.4087 41.3679 13.8826 40.2426 12.7574C39.1174 11.6321 37.5913 11 36 11Z" fill="#B8EF43"/>
<path d="M45.9006 28.7003C45.743 28.8185 45.5637 28.9045 45.3728 28.9534C45.182 29.0023 44.9834 29.0131 44.7884 28.9853C44.5934 28.9574 44.4058 28.8914 44.2363 28.791C44.0668 28.6907 43.9188 28.5579 43.8006 28.4003C42.8965 27.1851 41.7197 26.1991 40.3649 25.5217C39.0101 24.8443 37.5152 24.4945 36.0006 24.5003C35.6027 24.5003 35.2212 24.3423 34.9399 24.061C34.6586 23.7797 34.5006 23.3982 34.5006 23.0003C34.5006 22.6025 34.6586 22.221 34.9399 21.9397C35.2212 21.6584 35.6027 21.5003 36.0006 21.5003C36.8422 21.5003 37.6669 21.2642 38.3811 20.8189C39.0953 20.3735 39.6703 19.7369 40.0408 18.9812C40.4112 18.2255 40.5624 17.381 40.4769 16.5437C40.3915 15.7064 40.073 14.9099 39.5576 14.2445C39.0422 13.5792 38.3505 13.0717 37.5611 12.7797C36.7718 12.4878 35.9163 12.4231 35.092 12.5929C34.2677 12.7628 33.5075 13.1604 32.8979 13.7406C32.2882 14.3209 31.8535 15.0604 31.6431 15.8753C31.5938 16.0662 31.5075 16.2454 31.3889 16.4029C31.2704 16.5603 31.122 16.6929 30.9523 16.793C30.7825 16.8931 30.5947 16.9588 30.3996 16.9864C30.2044 17.0139 30.0058 17.0027 29.8149 16.9535C29.6241 16.9042 29.4449 16.8179 29.2874 16.6993C29.1299 16.5808 28.9974 16.4324 28.8973 16.2627C28.7971 16.0929 28.7315 15.9051 28.7039 15.71C28.6764 15.5148 28.6876 15.3162 28.7368 15.1253C29.0289 13.9953 29.5806 12.949 30.3482 12.0697C31.1157 11.1905 32.0779 10.5025 33.1582 10.0605C34.2384 9.61851 35.4069 9.43475 36.5706 9.52383C37.7344 9.61291 38.8613 9.97237 39.8617 10.5736C40.8621 11.1748 41.7084 12.0013 42.3332 12.9871C42.9579 13.973 43.344 15.091 43.4607 16.2524C43.5773 17.4137 43.4213 18.5862 43.0051 19.6766C42.5889 20.767 41.9239 21.7453 41.0631 22.5335C43.1027 23.4166 44.8758 24.818 46.2062 26.5985C46.3244 26.7564 46.4102 26.9362 46.4588 27.1274C46.5074 27.3186 46.5179 27.5176 46.4895 27.7128C46.4611 27.9081 46.3944 28.0958 46.2934 28.2652C46.1923 28.4347 46.0588 28.5825 45.9006 28.7003ZM35.7981 40.2503C35.9028 40.4211 35.9722 40.6111 36.0023 40.8091C36.0325 41.0072 36.0226 41.2092 35.9733 41.4034C35.9241 41.5975 35.8364 41.7799 35.7156 41.9396C35.5947 42.0993 35.4431 42.2332 35.2696 42.3334C35.0962 42.4336 34.9044 42.498 34.7057 42.5229C34.5069 42.5478 34.3052 42.5326 34.1124 42.4783C33.9196 42.4239 33.7397 42.3315 33.5832 42.2065C33.4267 42.0815 33.2968 41.9264 33.2012 41.7503C32.2562 40.1508 30.9105 38.8252 29.2969 37.9043C27.6833 36.9835 25.8575 36.4992 23.9996 36.4992C22.1418 36.4992 20.316 36.9835 18.7024 37.9043C17.0888 38.8252 15.7431 40.1508 14.7981 41.7503C14.7043 41.9296 14.5752 42.088 14.4186 42.2161C14.262 42.3442 14.0812 42.4393 13.8869 42.4957C13.6926 42.552 13.4889 42.5685 13.2881 42.5441C13.0872 42.5197 12.8934 42.4549 12.7183 42.3537C12.5431 42.2525 12.3903 42.1168 12.2689 41.955C12.1475 41.7931 12.0601 41.6084 12.012 41.4119C11.9639 41.2154 11.956 41.0112 11.9888 40.8116C12.0217 40.612 12.0945 40.4211 12.2031 40.2503C13.6573 37.7517 15.8747 35.7854 18.5293 34.6403C17.0356 33.4967 15.9377 31.9136 15.3902 30.1138C14.8426 28.3139 14.8729 26.3877 15.4767 24.6059C16.0804 22.8241 17.2274 21.2763 18.7563 20.1801C20.2852 19.0839 22.1193 18.4943 24.0006 18.4943C25.8819 18.4943 27.7159 19.0839 29.2448 20.1801C30.7737 21.2763 31.9207 22.8241 32.5245 24.6059C33.1283 26.3877 33.1585 28.3139 32.6109 30.1138C32.0634 31.9136 30.9656 33.4967 29.4718 34.6403C32.1265 35.7854 34.3438 37.7517 35.7981 40.2503ZM24.0006 33.5003C25.1873 33.5003 26.3473 33.1484 27.334 32.4892C28.3207 31.8299 29.0897 30.8928 29.5438 29.7964C29.998 28.7001 30.1168 27.4937 29.8853 26.3298C29.6538 25.1659 29.0823 24.0968 28.2432 23.2577C27.4041 22.4186 26.335 21.8471 25.1711 21.6156C24.0072 21.3841 22.8008 21.5029 21.7045 21.9571C20.6081 22.4112 19.671 23.1802 19.0118 24.1669C18.3525 25.1536 18.0006 26.3136 18.0006 27.5003C18.0006 29.0916 18.6327 30.6178 19.7579 31.743C20.8831 32.8682 22.4093 33.5003 24.0006 33.5003ZM13.5006 23.0003C13.5006 22.6025 13.3425 22.221 13.0612 21.9397C12.7799 21.6584 12.3984 21.5003 12.0006 21.5003C11.1589 21.5003 10.3342 21.2642 9.62001 20.8189C8.90583 20.3735 8.33085 19.7369 7.96038 18.9812C7.5899 18.2255 7.43879 17.381 7.52419 16.5437C7.60959 15.7064 7.9281 14.9099 8.44352 14.2445C8.95894 13.5792 9.65063 13.0717 10.44 12.7797C11.2294 12.4878 12.0848 12.4231 12.9091 12.5929C13.7334 12.7628 14.4936 13.1604 15.1033 13.7406C15.7129 14.3209 16.1477 15.0604 16.3581 15.8753C16.4575 16.2607 16.706 16.5908 17.0488 16.793C17.3917 16.9952 17.8008 17.0529 18.1862 16.9535C18.5716 16.854 18.9017 16.6055 19.1039 16.2627C19.3061 15.9198 19.3638 15.5107 19.2643 15.1253C18.9723 13.9953 18.4205 12.949 17.653 12.0697C16.8854 11.1905 15.9232 10.5025 14.843 10.0605C13.7627 9.61851 12.5942 9.43475 11.4305 9.52383C10.2667 9.61291 9.13982 9.97237 8.13943 10.5736C7.13904 11.1748 6.29278 12.0013 5.66798 12.9871C5.04319 13.973 4.6571 15.091 4.54045 16.2524C4.42379 17.4137 4.57979 18.5862 4.99603 19.6766C5.41226 20.767 6.07725 21.7453 6.93807 22.5335C4.90047 23.4174 3.12941 24.8188 1.80057 26.5985C1.56163 26.9167 1.4589 27.3169 1.51498 27.7109C1.57107 28.1049 1.78137 28.4605 2.09963 28.6994C2.41789 28.9383 2.81804 29.0411 3.21204 28.985C3.60604 28.9289 3.96163 28.7186 4.20057 28.4003C5.10467 27.1851 6.28147 26.1991 7.63624 25.5217C8.99101 24.8443 10.4859 24.4945 12.0006 24.5003C12.3984 24.5003 12.7799 24.3423 13.0612 24.061C13.3425 23.7797 13.5006 23.3982 13.5006 23.0003Z" fill="#B8EF43"/>
</svg>
