<svg width="48" height="49" viewBox="0 0 48 49" fill="none" xmlns="http://www.w3.org/2000/svg">
<path opacity="0.2" d="M11.0416 29.5422L18.9579 37.4584L9.46476 40.9084C9.20303 41.0047 8.91922 41.024 8.64686 40.9641C8.37451 40.9042 8.12499 40.7675 7.92781 40.5704C7.73062 40.3732 7.594 40.1237 7.5341 39.8513C7.47419 39.5789 7.49351 39.2951 7.58976 39.0334L11.0416 29.5422ZM37.0704 28.6572L19.8429 11.4297C19.6691 11.256 19.4544 11.1289 19.2185 11.0602C18.9827 10.9915 18.7333 10.9834 18.4934 11.0367C18.2536 11.09 18.0311 11.2029 17.8465 11.365C17.6619 11.5271 17.5211 11.7331 17.4373 11.964L14.6435 19.6515L28.8598 33.8678L36.5473 31.074C36.7795 30.9897 36.9865 30.8479 37.149 30.6618C37.3115 30.4758 37.4241 30.2515 37.4764 30.0101C37.5286 29.7686 37.5188 29.5179 37.4478 29.2813C37.3768 29.0447 37.2469 28.8299 37.0704 28.6572Z" fill="#B8EF43"/>
<path d="M20.904 10.3681C20.5517 10.0167 20.1166 9.75977 19.6388 9.6209C19.161 9.48203 18.6559 9.46574 18.1701 9.57354C17.6844 9.68134 17.2336 9.90976 16.8594 10.2377C16.4852 10.5657 16.1996 10.9826 16.029 11.45L6.18715 38.5212C6.02547 38.9677 5.97325 39.4464 6.03486 39.9171C6.09648 40.3879 6.27013 40.837 6.54125 41.2268C6.81236 41.6166 7.17303 41.9356 7.59297 42.1572C8.01291 42.3787 8.47987 42.4963 8.95465 42.5C9.30422 42.4976 9.65068 42.4342 9.9784 42.3125L37.0478 32.4688C37.5153 32.2984 37.9325 32.0129 38.2606 31.6388C38.5888 31.2647 38.8174 30.814 38.9254 30.3282C39.0334 29.8424 39.0173 29.3373 38.8785 28.8593C38.7398 28.3814 38.4829 27.9462 38.1315 27.5938L20.904 10.3681ZM19.3422 35.72L12.7797 29.1575L15.2472 22.3681L26.1315 33.2525L19.3422 35.72ZM9.02965 39.47L11.6547 32.2681L16.239 36.8525L9.02965 39.47ZM29.2497 32.12L16.3797 19.25L18.8172 12.5244L35.9603 29.6675L29.2497 32.12ZM29.9997 14C30.0278 12.9859 30.2734 11.9898 30.7197 11.0787C31.7134 9.09312 33.5884 8 35.9997 8C37.2559 8 38.0622 7.57063 38.559 6.64813C38.8207 6.13203 38.9708 5.56666 38.9997 4.98875C39.0011 4.59093 39.1606 4.20999 39.443 3.92974C39.7253 3.64949 40.1075 3.49288 40.5053 3.49437C40.9031 3.49587 41.284 3.65533 41.5643 3.93769C41.8445 4.22005 42.0011 4.60218 41.9997 5C41.9997 7.41125 40.4022 11 35.9997 11C34.7434 11 33.9372 11.4294 33.4403 12.3519C33.1786 12.868 33.0285 13.4333 32.9997 14.0112C32.9989 14.2082 32.9594 14.4031 32.8833 14.5848C32.8073 14.7666 32.6961 14.9315 32.5563 15.0703C32.4165 15.209 32.2508 15.3189 32.0685 15.3936C31.8862 15.4683 31.691 15.5064 31.494 15.5056C31.297 15.5049 31.1021 15.4654 30.9204 15.3893C30.7387 15.3132 30.5738 15.2021 30.435 15.0623C30.2962 14.9225 30.1864 14.7567 30.1117 14.5745C30.037 14.3922 29.9989 14.197 29.9997 14ZM25.4997 8V3.5C25.4997 3.10218 25.6577 2.72064 25.939 2.43934C26.2203 2.15804 26.6018 2 26.9997 2C27.3975 2 27.779 2.15804 28.0603 2.43934C28.3416 2.72064 28.4997 3.10218 28.4997 3.5V8C28.4997 8.39782 28.3416 8.77936 28.0603 9.06066C27.779 9.34196 27.3975 9.5 26.9997 9.5C26.6018 9.5 26.2203 9.34196 25.939 9.06066C25.6577 8.77936 25.4997 8.39782 25.4997 8ZM44.5609 23.4387C44.7001 23.5781 44.8106 23.7435 44.8859 23.9256C44.9612 24.1076 44.9999 24.3027 44.9998 24.4997C44.9997 24.6967 44.9608 24.8918 44.8854 25.0738C44.8099 25.2557 44.6993 25.4211 44.56 25.5603C44.4206 25.6996 44.2552 25.81 44.0731 25.8853C43.8911 25.9606 43.696 25.9993 43.499 25.9992C43.302 25.9991 43.1069 25.9603 42.925 25.8848C42.743 25.8093 42.5776 25.6987 42.4384 25.5594L39.4384 22.5594C39.1569 22.2779 38.9988 21.8962 38.9988 21.4981C38.9988 21.1001 39.1569 20.7183 39.4384 20.4369C39.7199 20.1554 40.1016 19.9973 40.4997 19.9973C40.8977 19.9973 41.2794 20.1554 41.5609 20.4369L44.5609 23.4387ZM45.474 15.4231L40.974 16.9231C40.5966 17.0489 40.1846 17.0197 39.8288 16.8417C39.4729 16.6638 39.2023 16.3518 39.0765 15.9744C38.9507 15.5969 38.98 15.185 39.1579 14.8291C39.3358 14.4733 39.6478 14.2027 40.0253 14.0769L44.5253 12.5769C44.9027 12.4511 45.3147 12.4803 45.6705 12.6583C46.0264 12.8362 46.297 13.1482 46.4228 13.5256C46.5486 13.9031 46.5193 14.315 46.3414 14.6709C46.1635 15.0267 45.8515 15.2973 45.474 15.4231Z" fill="#B8EF43"/>
</svg>
