<svg width="73" height="16" viewBox="0 0 73 16" fill="none" xmlns="http://www.w3.org/2000/svg">
<g clip-path="url(#clip0_1078_64941)">
<path d="M26.0241 8.92059L25.5914 10.1452H25.5554C25.4832 9.8691 25.351 9.44887 25.1347 8.9446L22.8148 3.12147H20.543V12.4025H22.0455V6.67538C22.0455 6.31519 22.0455 5.90697 22.0335 5.40269C22.0214 5.15056 21.9974 4.95846 21.9854 4.81438H22.0214C22.0936 5.17457 22.1777 5.43871 22.2378 5.6068L25.0265 12.3784H26.0842L28.8489 5.54677C28.909 5.39069 28.9691 5.07852 29.0292 4.81438H29.0652C29.0292 5.49875 29.0051 6.11108 28.9931 6.48328V12.3664H30.5918V3.09745H28.4041L26.0241 8.92059ZM32.1063 5.71486H33.6689V12.3664H32.1063V5.71486ZM32.8997 2.90535C32.6352 2.90535 32.4189 3.0014 32.2386 3.16949C32.0582 3.33758 31.9621 3.5537 31.9621 3.81784C31.9621 4.06998 32.0582 4.28609 32.2386 4.45418C32.4189 4.62227 32.6352 4.70632 32.8997 4.70632C33.1641 4.70632 33.3925 4.61027 33.5608 4.45418C33.7411 4.28609 33.8372 4.06998 33.8372 3.81784C33.8372 3.56571 33.7411 3.34959 33.5608 3.16949C33.4045 3.0014 33.1761 2.90535 32.8997 2.90535ZM39.2102 5.65483C38.9217 5.5948 38.6212 5.55878 38.3328 5.55878C37.6236 5.55878 36.9745 5.71486 36.4336 6.02703C35.8927 6.3392 35.4599 6.77143 35.1835 7.31172C34.895 7.86402 34.7508 8.50036 34.7508 9.23276C34.7508 9.8691 34.895 10.4334 35.1715 10.9497C35.4479 11.454 35.8326 11.8622 36.3494 12.1383C36.8423 12.4145 37.4192 12.5585 38.0683 12.5585C38.8136 12.5585 39.4506 12.4025 39.9555 12.1143L39.9675 12.1023V10.6615L39.9074 10.7095C39.679 10.8776 39.4146 11.0217 39.1501 11.1058C38.8737 11.2018 38.6212 11.2498 38.4049 11.2498C37.7798 11.2498 37.287 11.0697 36.9384 10.6735C36.5778 10.2893 36.3975 9.76104 36.3975 9.10069C36.3975 8.41632 36.5778 7.87603 36.9504 7.47981C37.3231 7.0836 37.8159 6.87949 38.4169 6.87949C38.9217 6.87949 39.4386 7.04758 39.9074 7.38376L39.9675 7.43179V5.90697L39.9555 5.89496C39.7511 5.81091 39.5227 5.71486 39.2102 5.65483ZM44.3669 5.6068C43.9822 5.6068 43.6216 5.72687 43.3091 5.979C43.0446 6.19512 42.8643 6.50729 42.7081 6.87949H42.6961V5.71486H41.1334V12.3664H42.6961V8.96861C42.6961 8.3923 42.8163 7.91205 43.0807 7.56386C43.3451 7.20366 43.6817 7.02357 44.0904 7.02357C44.2346 7.02357 44.3789 7.05959 44.5592 7.0836C44.7275 7.13163 44.8477 7.17965 44.9318 7.23968L44.9919 7.28771V5.72687L44.9558 5.71486C44.8477 5.64282 44.6313 5.6068 44.3669 5.6068ZM48.622 5.57079C47.5282 5.57079 46.6507 5.89496 46.0377 6.5313C45.4126 7.16764 45.1121 8.04412 45.1121 9.14871C45.1121 10.1813 45.4246 11.0217 46.0256 11.634C46.6266 12.2344 47.444 12.5465 48.4657 12.5465C49.5355 12.5465 50.3889 12.2224 51.002 11.574C51.627 10.9257 51.9275 10.0612 51.9275 8.99263C51.9275 7.93606 51.639 7.09561 51.05 6.48328C50.4851 5.87095 49.6557 5.57079 48.622 5.57079ZM49.8721 10.6855C49.5836 11.0577 49.1268 11.2378 48.5619 11.2378C47.9969 11.2378 47.5402 11.0577 47.2156 10.6615C46.8911 10.2893 46.7348 9.74903 46.7348 9.06467C46.7348 8.35628 46.9031 7.81599 47.2156 7.43179C47.5402 7.04758 47.9849 6.85548 48.5499 6.85548C49.1028 6.85548 49.5355 7.03557 49.848 7.40777C50.1606 7.77997 50.3288 8.32026 50.3288 9.02865C50.3048 9.74903 50.1726 10.3133 49.8721 10.6855ZM55.4134 8.47635C54.9205 8.27224 54.608 8.11616 54.4638 7.98408C54.3436 7.86402 54.2835 7.69593 54.2835 7.47981C54.2835 7.29972 54.3556 7.11962 54.5359 6.99955C54.7162 6.87949 54.9205 6.81946 55.221 6.81946C55.4855 6.81946 55.7619 6.86748 56.0264 6.93952C56.2908 7.01156 56.5312 7.11962 56.7235 7.2637L56.7836 7.31172V5.84693L56.7476 5.83493C56.5673 5.76289 56.3269 5.69085 56.0384 5.63082C55.7499 5.58279 55.4855 5.55878 55.2691 5.55878C54.5239 5.55878 53.9108 5.73888 53.43 6.13509C52.9492 6.50729 52.7208 7.01156 52.7208 7.59988C52.7208 7.91204 52.7689 8.18819 52.8771 8.41632C52.9853 8.64444 53.1416 8.86056 53.3579 9.04065C53.5743 9.20874 53.8868 9.40085 54.3195 9.58094C54.6801 9.73703 54.9566 9.85709 55.1249 9.95314C55.2932 10.0492 55.4013 10.1573 55.4855 10.2413C55.5456 10.3374 55.5816 10.4574 55.5816 10.6135C55.5816 11.0577 55.2451 11.2739 54.5599 11.2739C54.2955 11.2739 54.019 11.2258 53.6945 11.1178C53.3699 11.0097 53.0694 10.8536 52.817 10.6735L52.7569 10.6255V12.1503L52.793 12.1623C53.0213 12.2704 53.2978 12.3424 53.6344 12.4265C53.9709 12.4865 54.2714 12.5345 54.5359 12.5345C55.3412 12.5345 56.0023 12.3544 56.4711 11.9582C56.9519 11.574 57.2044 11.0818 57.2044 10.4454C57.2044 10.0012 57.0841 9.60496 56.8197 9.30479C56.4711 9.01664 56.0384 8.71648 55.4134 8.47635ZM61.3273 5.57079C60.2334 5.57079 59.356 5.89496 58.7429 6.5313C58.1299 7.16764 57.8174 8.04412 57.8174 9.14871C57.8174 10.1813 58.1299 11.0217 58.7309 11.634C59.3319 12.2344 60.1493 12.5465 61.171 12.5465C62.2408 12.5465 63.0942 12.2224 63.7072 11.574C64.3323 10.9257 64.6328 10.0612 64.6328 8.99263C64.6328 7.93606 64.3443 7.09561 63.7553 6.48328C63.1904 5.87095 62.361 5.57079 61.3273 5.57079ZM62.5653 10.6855C62.2768 11.0577 61.8201 11.2378 61.2551 11.2378C60.6782 11.2378 60.2334 11.0577 59.9089 10.6615C59.5843 10.2893 59.4281 9.74903 59.4281 9.06467C59.4281 8.35628 59.5964 7.81599 59.9089 7.43179C60.2334 7.04758 60.6782 6.85548 61.2431 6.85548C61.784 6.85548 62.2288 7.03557 62.5413 7.40777C62.8538 7.77997 63.0221 8.32026 63.0221 9.02865C63.0221 9.74903 62.8658 10.3133 62.5653 10.6855ZM72.9868 6.99955V5.71486H71.4121V3.7458L71.3641 3.75781L69.8736 4.20205L69.8375 4.21405V5.71486H67.4816V4.87441C67.4816 4.4902 67.5777 4.19004 67.746 3.99794C67.9143 3.80584 68.1667 3.70978 68.4792 3.70978C68.6956 3.70978 68.924 3.75781 69.1764 3.86587L69.2365 3.90189V2.54516L69.2004 2.53315C68.9841 2.46111 68.6956 2.41309 68.323 2.41309C67.8542 2.41309 67.4455 2.52114 67.0729 2.70124C66.7003 2.90535 66.4238 3.1815 66.2194 3.5537C66.0151 3.91389 65.9069 4.32211 65.9069 4.79037V5.71486H64.8131V6.98755H65.9069V12.3664H67.4816V6.99955H69.8375V10.4214C69.8375 11.8262 70.4986 12.5345 71.8208 12.5345C72.0372 12.5345 72.2656 12.4985 72.4819 12.4625C72.7103 12.4145 72.8786 12.3544 72.9748 12.3064L72.9868 12.2944V11.0097L72.9267 11.0577C72.8305 11.1178 72.7464 11.1658 72.6021 11.2018C72.4819 11.2378 72.3737 11.2498 72.2896 11.2498C71.9771 11.2498 71.7607 11.1778 71.6045 10.9977C71.4602 10.8296 71.3881 10.5535 71.3881 10.1452V6.99955H72.9868Z" fill="#041B01"/>
<path d="M0.398438 0H7.76677V7.35996H0.398438V0Z" fill="#041B01"/>
<path d="M8.53516 0H15.9035V7.35996H8.53516V0Z" fill="#041B01"/>
<path d="M0.398438 8.12793H7.76677V15.4879H0.398438V8.12793Z" fill="#041B01"/>
<path d="M8.53516 8.12793H15.9035V15.4879H8.53516V8.12793Z" fill="#041B01"/>
</g>
<defs>
<clipPath id="clip0_1078_64941">
<rect width="72.6016" height="15.4883" fill="white" transform="translate(0.398438)"/>
</clipPath>
</defs>
</svg>
