<svg width="105" height="32" viewBox="0 0 105 32" fill="none" xmlns="http://www.w3.org/2000/svg">
<path d="M0 4C0 1.79086 1.79086 0 4 0H101C103.209 0 105 1.79086 105 4V28C105 30.2091 103.209 32 101 32H4C1.79086 32 0 30.2091 0 28V4Z" fill="white" fill-opacity="0.03"/>
<path d="M4 0.5H101C102.933 0.5 104.5 2.067 104.5 4V28C104.5 29.933 102.933 31.5 101 31.5H4C2.067 31.5 0.5 29.933 0.5 28V4C0.5 2.067 2.067 0.5 4 0.5Z" stroke="white" stroke-opacity="0.17"/>
<path d="M89.6301 15.2453V13.9429H87.9489V11.918L87.8923 11.9347L86.3133 12.3995L86.2822 12.4086V13.9429H83.7899V13.0882C83.7899 12.6903 83.8824 12.3857 84.0646 12.1826C84.2457 11.9819 84.5047 11.8799 84.8348 11.8799C85.0723 11.8799 85.3181 11.9337 85.5654 12.0398L85.6274 12.0664V10.6948L85.5983 10.6845C85.3675 10.6047 85.0536 10.5645 84.6646 10.5645C84.1742 10.5645 83.7286 10.6671 83.3401 10.8705C82.9513 11.0743 82.6454 11.3651 82.4312 11.735C82.2177 12.1044 82.1093 12.531 82.1093 13.0032V13.9429H80.9387V15.2453H82.1093V20.7323H83.7899V15.2453H86.2822V18.7323C86.2822 20.1683 86.9862 20.8961 88.3748 20.8961C88.603 20.8961 88.8431 20.8703 89.0883 20.8199C89.3379 20.7683 89.5079 20.7166 89.6079 20.6614L89.6301 20.6489V19.3343L89.5618 19.3778C89.4706 19.4364 89.357 19.4841 89.2238 19.5196C89.09 19.5558 88.9783 19.574 88.8919 19.574C88.5665 19.574 88.3259 19.4896 88.1765 19.3232C88.0255 19.1553 87.9489 18.8616 87.9489 18.4508V15.2453H89.6301ZM77.1858 19.5741C76.5759 19.5741 76.095 19.3795 75.7561 18.9962C75.4151 18.611 75.2424 18.0617 75.2424 17.3639C75.2424 16.644 75.4151 16.0805 75.7563 15.6885C76.0954 15.299 76.5717 15.1014 77.1722 15.1014C77.7549 15.1014 78.2187 15.2901 78.5509 15.6628C78.8849 16.0373 79.0543 16.5963 79.0543 17.3246C79.0543 18.0619 78.8949 18.6282 78.5807 19.007C78.2687 19.3831 77.7994 19.5741 77.1858 19.5741ZM77.2607 13.7793C76.097 13.7793 75.1726 14.1073 74.5137 14.7543C73.8551 15.4014 73.5211 16.2969 73.5211 17.4161C73.5211 18.4791 73.8471 19.3342 74.4901 19.9571C75.133 20.5803 76.008 20.896 77.0904 20.896C78.2185 20.896 79.1244 20.5634 79.7831 19.9074C80.4418 19.2521 80.7755 18.3651 80.7755 17.272C80.7755 16.1924 80.4624 15.331 79.8445 14.7122C79.2263 14.0931 78.3568 13.7793 77.2607 13.7793ZM70.8116 13.7792C70.0201 13.7792 69.3653 13.974 68.8651 14.3581C68.3619 14.7444 68.1066 15.2512 68.1066 15.8644C68.1066 16.1831 68.1617 16.4663 68.2702 16.7064C68.3793 16.9474 68.5481 17.1594 68.7724 17.3375C68.995 17.5141 69.3385 17.6991 69.7939 17.8872C70.1765 18.0388 70.462 18.167 70.6433 18.268C70.8206 18.367 70.9464 18.4666 71.0174 18.5635C71.0864 18.6583 71.1215 18.7881 71.1215 18.9484C71.1215 19.4044 70.7665 19.6264 70.0359 19.6264C69.7649 19.6264 69.4558 19.572 69.1171 19.4646C68.7783 19.3574 68.4617 19.2033 68.1763 19.0057L68.1066 18.9576V20.5141L68.1322 20.5256C68.3701 20.6312 68.6698 20.7202 69.0231 20.7903C69.3758 20.8604 69.6962 20.8961 69.9746 20.8961C70.8336 20.8961 71.5253 20.7004 72.03 20.314C72.538 19.925 72.7954 19.4063 72.7954 18.7718C72.7954 18.3142 72.6568 17.9217 72.3836 17.6052C72.1124 17.2913 71.6416 17.0031 70.9848 16.7483C70.4615 16.5463 70.1264 16.3785 69.9881 16.2498C69.8548 16.1254 69.7872 15.9496 69.7872 15.7268C69.7872 15.5294 69.8707 15.3712 70.0422 15.2431C70.2151 15.1143 70.4556 15.0488 70.7574 15.0488C71.0374 15.0488 71.3239 15.0914 71.6087 15.1748C71.8934 15.2581 72.1435 15.3698 72.3523 15.5065L72.4209 15.5516V14.075L72.3945 14.0641C72.2019 13.9847 71.948 13.9167 71.6396 13.8615C71.3324 13.8069 71.0538 13.7792 70.8116 13.7792ZM63.7256 19.5741C63.1158 19.5741 62.6347 19.3795 62.2959 18.9962C61.9548 18.611 61.7824 18.0619 61.7824 17.3639C61.7824 16.644 61.955 16.0805 62.2963 15.6885C62.6351 15.299 63.1113 15.1014 63.7121 15.1014C64.2946 15.1014 64.7584 15.2901 65.0907 15.6628C65.4247 16.0373 65.5941 16.5963 65.5941 17.3246C65.5941 18.0619 65.4347 18.6282 65.1204 19.007C64.8084 19.3831 64.3394 19.5741 63.7256 19.5741ZM63.8006 13.7793C62.6366 13.7793 61.7123 14.1073 61.0536 14.7543C60.395 15.4014 60.0609 16.2969 60.0609 17.4161C60.0609 18.4796 60.387 19.3342 61.03 19.9571C61.6729 20.5803 62.5478 20.896 63.6303 20.896C64.7581 20.896 65.6643 20.5634 66.3231 19.9074C66.9815 19.2521 67.3154 18.3651 67.3154 17.272C67.3154 16.1924 67.0022 15.331 66.3842 14.7122C65.7659 14.0931 64.8966 13.7793 63.8006 13.7793ZM57.5099 15.1186V13.9429H55.8498V20.7322H57.5099V17.2592C57.5099 16.6686 57.6491 16.1835 57.9236 15.817C58.1948 15.455 58.5561 15.2715 58.9973 15.2715C59.1468 15.2715 59.3146 15.2952 59.4964 15.3421C59.6763 15.3888 59.8066 15.4394 59.8835 15.4927L59.9532 15.5413V13.9312L59.9263 13.9201C59.7717 13.8569 59.5531 13.825 59.2763 13.825C58.8592 13.825 58.4859 13.954 58.1661 14.2078C57.8855 14.431 57.6826 14.737 57.5275 15.1186H57.5099ZM52.8771 13.7792C52.1156 13.7792 51.4362 13.9364 50.8584 14.2461C50.2794 14.5565 49.8317 14.9997 49.527 15.5632C49.2238 16.1255 49.0698 16.7821 49.0698 17.5144C49.0698 18.1559 49.2191 18.7446 49.5142 19.2634C49.8094 19.7831 50.2274 20.1897 50.7564 20.4717C51.2846 20.7533 51.8951 20.8961 52.5711 20.8961C53.36 20.8961 54.0336 20.7443 54.5736 20.4451L54.5954 20.4331V18.9699L54.5257 19.0189C54.2811 19.1903 54.0077 19.3272 53.7135 19.4258C53.4201 19.5243 53.1526 19.5741 52.9181 19.5741C52.2667 19.5741 51.7439 19.3779 51.3643 18.9914C50.9839 18.6043 50.791 18.0608 50.791 17.3768C50.791 16.6885 50.9921 16.131 51.3886 15.7196C51.7837 15.3094 52.3076 15.1014 52.9455 15.1014C53.4912 15.1014 54.0228 15.2792 54.5259 15.6302L54.5954 15.6788V14.1372L54.573 14.125C54.3836 14.0231 54.1255 13.9389 53.8049 13.8751C53.4859 13.8114 53.1737 13.7792 52.8771 13.7792ZM47.9265 13.9429H46.2664V20.7322H47.9265V13.9429ZM47.1134 11.0506C46.8402 11.0506 46.6019 11.14 46.4062 11.3173C46.2096 11.4952 46.1098 11.7191 46.1098 11.9833C46.1098 12.2433 46.2084 12.4631 46.403 12.6362C46.5964 12.8088 46.8355 12.8963 47.1134 12.8963C47.3913 12.8963 47.6312 12.8088 47.827 12.6365C48.024 12.4631 48.1239 12.2433 48.1239 11.9833C48.1239 11.7283 48.0267 11.5067 47.8351 11.3245C47.6437 11.1427 47.4008 11.0506 47.1134 11.0506ZM42.9716 13.442V20.7321H44.6657V11.2585H42.321L39.3407 18.2952L36.4485 11.2585H34.0083V20.7321H35.6003V13.4412H35.655L38.7091 20.7321H39.9105L42.9169 13.442H42.9716Z" fill="white"/>
<path d="M20.4366 15.6067H12.6274V8.09375H20.4366V15.6067Z" fill="white"/>
<path d="M29.042 15.6067H21.2329V8.09375H29.042V15.6067Z" fill="white"/>
<path d="M20.4364 23.9056H12.6274V16.3926H20.4364V23.9056Z" fill="white"/>
<path d="M29.042 23.9056H21.2329V16.3926H29.042V23.9056Z" fill="white"/>
</svg>
