<svg width="87" height="32" viewBox="0 0 87 32" fill="none" xmlns="http://www.w3.org/2000/svg">
<path d="M0 4.65137C0 2.44223 1.79086 0.651367 4 0.651367H82.7686C84.9778 0.651367 86.7686 2.44223 86.7686 4.65137V27.9999C86.7686 30.2091 84.9778 31.9999 82.7686 31.9999H4C1.79087 31.9999 0 30.2091 0 27.9999V4.65137Z" fill="white" fill-opacity="0.03"/>
<path d="M4 1.15137H82.7686C84.7016 1.15137 86.2686 2.71837 86.2686 4.65137V28C86.2685 29.933 84.7015 31.5 82.7686 31.5H4C2.06703 31.5 0.500036 29.933 0.5 28V4.65137C0.5 2.71837 2.067 1.15137 4 1.15137Z" stroke="white" stroke-opacity="0.17"/>
<path d="M17.0313 8.42773H10.2344V24.6511L17.0313 8.42773Z" fill="white"/>
<path d="M21.8105 8.42773H28.5986V24.6511L21.8105 8.42773Z" fill="white"/>
<path d="M19.4226 14.4072L23.7487 24.6512H20.9104L19.6174 21.3897H16.4514L19.4226 14.4072Z" fill="white"/>
<path d="M39.121 18.9875L39.9225 21.2811C39.949 21.3386 39.9889 21.3651 40.0597 21.3651H41.6007C41.6848 21.3651 41.6981 21.3253 41.6848 21.2414L38.5011 12.416C38.4878 12.3453 38.4745 12.332 38.4037 12.332H36.4908C36.4377 12.332 36.4067 12.3718 36.4067 12.4293C36.3801 12.8933 36.3403 13.0347 36.2827 13.1717L33.4444 21.2281C33.4311 21.3253 33.4621 21.3651 33.5418 21.3651H34.9189C35.003 21.3651 35.0429 21.3386 35.0739 21.2546L35.831 18.9875H39.121ZM36.2694 17.4894C36.6856 16.2343 37.2347 14.6257 37.4561 13.7064H37.4694C37.7439 14.6699 38.3904 16.579 38.6826 17.4894H36.2694Z" fill="white"/>
<path d="M45.7786 21.5029C46.6066 21.5029 47.4877 21.3527 48.3822 20.9682C48.453 20.9417 48.4663 20.9107 48.4663 20.8445C48.4397 20.597 48.4088 20.239 48.4088 19.965V11.6567C48.4088 11.6037 48.4088 11.5771 48.3423 11.5771H46.8413C46.7837 11.5771 46.7571 11.6037 46.7571 11.6744V14.4895C46.5224 14.463 46.3586 14.4497 46.1638 14.4497C43.7417 14.4497 42.2539 16.0451 42.2539 18.0382C42.2539 20.3495 43.7815 21.5029 45.7786 21.5029ZM46.7571 19.965C46.5092 20.0446 46.2346 20.0755 45.9557 20.0755C44.8575 20.0755 43.9587 19.4568 43.9587 17.9542C43.9587 16.624 44.8841 15.8374 46.1107 15.8374C46.3586 15.8374 46.5756 15.8639 46.7571 15.9346V19.965Z" fill="white"/>
<path d="M53.2538 14.4492C51.1859 14.4492 49.9062 16.0313 49.9062 17.9847C49.9062 19.7303 50.9247 21.5024 53.2228 21.5024C55.1667 21.5024 56.5305 20.075 56.5305 17.9405C56.5305 16.0578 55.3748 14.4492 53.2538 14.4492ZM53.1696 15.8369C54.3386 15.8369 54.8346 16.8401 54.8346 17.9847C54.8346 19.3989 54.1039 20.1015 53.2538 20.1015C52.2044 20.1015 51.5844 19.2221 51.5844 17.9537C51.5844 16.65 52.2442 15.8369 53.1696 15.8369Z" fill="white"/>
<path d="M58.0818 11.5771C58.0242 11.5771 57.9844 11.6037 57.9844 11.6744V21.0787C57.9844 21.1185 58.0242 21.1892 58.0818 21.2024C58.7416 21.4057 59.4323 21.5029 60.1452 21.5029C62.1865 21.5029 64.1702 20.239 64.1702 17.6935C64.1702 15.8506 62.9038 14.4497 60.9201 14.4497C60.464 14.4497 60.0389 14.5204 59.667 14.6442L59.6493 11.6876C59.6493 11.5904 59.6227 11.5771 59.5253 11.5771H58.0818ZM62.4743 17.8614C62.4743 19.3861 61.4293 20.102 60.3002 20.102C60.0655 20.102 59.8574 20.0888 59.667 20.0313V16.0186C59.884 15.9346 60.1452 15.8639 60.6279 15.8639C61.7171 15.8639 62.4743 16.5533 62.4743 17.8614Z" fill="white"/>
<path d="M69.7716 18.3559C70.4446 18.3559 70.9981 18.3426 71.1885 18.2984C71.2594 18.2852 71.2859 18.2587 71.2992 18.2012C71.3391 18.051 71.3568 17.7372 71.3568 17.3527C71.3568 16.0446 70.5686 14.4492 68.5318 14.4492C66.4506 14.4492 65.2949 16.1418 65.2949 18.051C65.2949 19.7436 66.1894 21.5024 68.6956 21.5024C69.6343 21.5024 70.2409 21.3522 70.7634 21.1047C70.8166 21.0782 70.8431 21.034 70.8431 20.9545V19.8099C70.8431 19.7436 70.8033 19.7303 70.7634 19.7568C70.2409 19.9778 69.6742 20.0883 69.0543 20.0883C67.6506 20.0883 67.013 19.3149 66.9731 18.3559H69.7716ZM66.9731 17.1715C67.0838 16.4998 67.5089 15.7706 68.4609 15.7706C69.5103 15.7706 69.7849 16.65 69.7849 17.0478C69.7849 17.061 69.7849 17.1185 69.7849 17.1583C69.7273 17.1715 69.5502 17.1715 69.0277 17.1715H66.9731Z" fill="white"/>
</svg>
