<svg width="73" height="32" viewBox="0 0 73 32" fill="none" xmlns="http://www.w3.org/2000/svg">
<path d="M0.768555 4.65137C0.768555 2.44223 2.55942 0.651367 4.76855 0.651367H68.7266C70.9358 0.651367 72.7266 2.44223 72.7266 4.65137V27.9999C72.7266 30.2091 70.9358 31.9999 68.7266 31.9999H4.76856C2.55942 31.9999 0.768555 30.2091 0.768555 27.9999V4.65137Z" fill="white" fill-opacity="0.03"/>
<path d="M4.76855 1.15137H68.7266C70.6596 1.15137 72.2266 2.71837 72.2266 4.65137V28C72.2265 29.933 70.6595 31.5 68.7266 31.5H4.76855C2.83558 31.5 1.26859 29.933 1.26855 28V4.65137C1.26855 2.71837 2.83556 1.15137 4.76855 1.15137Z" stroke="white" stroke-opacity="0.17"/>
<g clip-path="url(#clip0_885_282)">
<path fill-rule="evenodd" clip-rule="evenodd" d="M44.0182 23.0834C41.1519 25.1591 36.9979 26.2698 33.4161 26.2698C28.3988 26.2698 23.8846 24.4462 20.4657 21.4101C20.1993 21.1725 20.4361 20.8475 20.7617 21.0318C24.447 23.1416 29.0105 24.4074 33.7171 24.4074C36.8942 24.4074 40.3872 23.7623 43.5989 22.4189C44.0873 22.2201 44.4918 22.7342 44.0182 23.0834Z" fill="white"/>
<path fill-rule="evenodd" clip-rule="evenodd" d="M45.2052 21.74C44.8401 21.2793 42.7828 21.5218 41.8603 21.6285C41.579 21.6624 41.5346 21.4199 41.7912 21.2502C43.4291 20.1153 46.1179 20.4451 46.4336 20.8234C46.7494 21.2065 46.3497 23.8546 44.8105 25.1205C44.5737 25.3145 44.3467 25.2126 44.4553 24.9556C44.8006 24.1068 45.5752 22.2056 45.2052 21.74Z" fill="white"/>
<path fill-rule="evenodd" clip-rule="evenodd" d="M41.9258 13.2475V12.1466C41.9258 11.9817 42.0541 11.8701 42.207 11.8701H47.2244C47.3872 11.8701 47.5154 11.9865 47.5154 12.1466V13.0923C47.5154 13.2524 47.3773 13.4561 47.1356 13.7859L44.5405 17.433C45.5075 17.4088 46.5287 17.5494 47.402 18.0344C47.5993 18.146 47.6536 18.306 47.6684 18.4612V19.6349C47.6684 19.795 47.4858 19.9841 47.2984 19.8871C45.7542 19.0917 43.7019 19.0044 41.9949 19.8968C41.8222 19.989 41.6396 19.8047 41.6396 19.6446V18.5291C41.6396 18.3497 41.6396 18.0441 41.8222 17.7725L44.8366 13.524H42.2169C42.0541 13.524 41.9258 13.4124 41.9258 13.2475Z" fill="white"/>
<path fill-rule="evenodd" clip-rule="evenodd" d="M23.6171 20.1248H22.0926C21.9446 20.1151 21.8312 20.0084 21.8213 19.8677V12.166C21.8213 12.0108 21.9545 11.8895 22.1173 11.8895H23.5431C23.6911 11.8944 23.8095 12.0059 23.8194 12.1466V13.1554H23.849C24.219 12.1805 24.9195 11.7295 25.8569 11.7295C26.814 11.7295 27.4109 12.1854 27.8402 13.1554C28.2102 12.1805 29.0489 11.7295 29.9468 11.7295C30.5881 11.7295 31.2887 11.9914 31.713 12.5734C32.1964 13.2233 32.0978 14.1642 32.0978 14.9887V19.8483C32.0978 20.0035 31.9646 20.1248 31.8018 20.1248H30.2773C30.1244 20.1151 30.001 19.9938 30.001 19.8483V15.7647C30.001 15.4397 30.0306 14.6298 29.9566 14.3194C29.8432 13.8004 29.5028 13.6549 29.0587 13.6549C28.6887 13.6549 28.3039 13.8974 28.146 14.2854C27.9882 14.6734 28.003 15.3233 28.003 15.7598V19.8435C28.003 19.9987 27.8698 20.1199 27.707 20.1199H26.1874C26.0345 20.1102 25.9112 19.989 25.9112 19.8435V15.7598C25.9112 14.9014 26.0542 13.6355 24.9689 13.6355C23.8736 13.6355 23.9131 14.8674 23.9131 15.7598V19.8435C23.9131 19.9987 23.7799 20.1248 23.6171 20.1248Z" fill="white"/>
<path fill-rule="evenodd" clip-rule="evenodd" d="M51.841 11.7246C54.1054 11.7246 55.3339 13.6355 55.3339 16.0702C55.3339 18.4176 53.9772 20.2848 51.841 20.2848C49.6159 20.2848 48.4072 18.3739 48.4072 15.9877C48.4023 13.5918 49.6307 11.7246 51.841 11.7246ZM51.8508 13.3008C50.726 13.3008 50.6569 14.8043 50.6569 15.7452C50.6569 16.6861 50.6421 18.6989 51.841 18.6989C53.025 18.6989 53.0793 17.079 53.0793 16.0896C53.0793 15.4397 53.0497 14.6637 52.8523 14.0477C52.6797 13.5094 52.3392 13.3008 51.8508 13.3008Z" fill="white"/>
<path fill-rule="evenodd" clip-rule="evenodd" d="M58.2714 20.1247H56.7519C56.5989 20.115 56.4756 19.9938 56.4756 19.8483V12.1417C56.4904 12.0011 56.6137 11.8895 56.7716 11.8895H58.1875C58.3207 11.8944 58.4293 11.9865 58.4589 12.1029V13.2814H58.4885C58.9177 12.229 59.5146 11.7246 60.5704 11.7246C61.2561 11.7246 61.9222 11.9671 62.3514 12.6316C62.751 13.2475 62.751 14.2854 62.751 15.0274V19.8774C62.7362 20.0132 62.6079 20.1199 62.455 20.1199H60.9256C60.7875 20.1102 60.6691 20.0083 60.6543 19.8774V15.6967C60.6543 14.8528 60.7529 13.6209 59.6972 13.6209C59.3271 13.6209 58.9818 13.8634 58.8141 14.2369C58.597 14.7073 58.5723 15.1778 58.5723 15.6967V19.8434C58.5674 19.9986 58.4342 20.1247 58.2714 20.1247Z" fill="white"/>
<path fill-rule="evenodd" clip-rule="evenodd" d="M37.9242 16.4431C37.9242 17.03 37.939 17.515 37.638 18.0339C37.3963 18.4559 37.0065 18.7178 36.5822 18.7178C35.9952 18.7178 35.6547 18.2764 35.6547 17.6314C35.6547 16.351 36.8191 16.1182 37.9291 16.1182L37.9242 16.4431ZM39.4634 20.1C39.3647 20.1873 39.2167 20.197 39.1033 20.134C38.5951 19.7217 38.5063 19.5277 38.2251 19.1349C37.3864 19.9739 36.7944 20.2261 35.709 20.2261C34.4214 20.2261 33.4248 19.4453 33.4248 17.8884C33.4248 16.6711 34.0958 15.8417 35.0529 15.4343C35.8817 15.0754 37.0411 15.0124 37.9242 14.9105V14.7165C37.9242 14.3576 37.9538 13.9357 37.7367 13.6302C37.5541 13.3537 37.194 13.2373 36.8783 13.2373C36.2961 13.2373 35.7781 13.5332 35.6498 14.1394C35.6251 14.2752 35.5215 14.4061 35.3834 14.4158L33.9034 14.2606C33.78 14.2315 33.6369 14.1345 33.6764 13.9454C34.0218 12.1849 35.6449 11.6514 37.0953 11.6514C37.8403 11.6514 38.8073 11.8454 39.3943 12.3983C40.1393 13.0821 40.0653 13.989 40.0653 14.9784V17.3161C40.0653 18.0194 40.3613 18.3298 40.6425 18.7081C40.7412 18.8439 40.7609 19.0039 40.6376 19.1058C40.3268 19.3677 39.7742 19.843 39.4634 20.1Z" fill="white"/>
<path fill-rule="evenodd" clip-rule="evenodd" d="M17.9085 16.4431C17.9085 17.03 17.9233 17.515 17.6224 18.0339C17.3806 18.4559 16.9958 18.7178 16.5666 18.7178C15.9795 18.7178 15.6391 18.2764 15.6391 17.6314C15.6391 16.351 16.8034 16.1182 17.9085 16.1182V16.4431ZM19.4478 20.1C19.3491 20.1873 19.2011 20.197 19.0876 20.134C18.5795 19.7217 18.4907 19.5277 18.2095 19.1349C17.3708 19.9739 16.7788 20.2261 15.6934 20.2261C14.4107 20.2261 13.4092 19.4453 13.4092 17.8884C13.4092 16.6711 14.0801 15.8417 15.0372 15.4343C15.8661 15.0754 17.0254 15.0124 17.9085 14.9105V14.7165C17.9085 14.3576 17.9381 13.9357 17.726 13.6302C17.5385 13.3537 17.1833 13.2373 16.8676 13.2373C16.2854 13.2373 15.7674 13.5332 15.6391 14.1394C15.6145 14.2752 15.5109 14.4061 15.3727 14.4158L13.8927 14.2606C13.7693 14.2315 13.6312 14.1345 13.6657 13.9454C14.0061 12.1849 15.6293 11.6514 17.0797 11.6514C17.8247 11.6514 18.7916 11.8454 19.3787 12.3983C20.1237 13.0821 20.0497 13.989 20.0497 14.9784V17.3161C20.0497 18.0194 20.3457 18.3298 20.6269 18.7081C20.7256 18.8439 20.7453 19.0039 20.622 19.1058C20.3112 19.3677 19.7586 19.843 19.4478 20.1Z" fill="white"/>
</g>
<defs>
<clipPath id="clip0_885_282">
<rect width="49.335" height="14.6178" fill="white" transform="translate(13.4092 11.6514)"/>
</clipPath>
</defs>
</svg>
