<svg width="87" height="32" viewBox="0 0 87 32" fill="none" xmlns="http://www.w3.org/2000/svg">
<rect x="0.726685" width="86" height="32" rx="4" fill="white" fill-opacity="0.03"/>
<rect x="1.22668" y="0.5" width="85" height="31" rx="3.5" stroke="white" stroke-opacity="0.17"/>
<path d="M20.3959 25.0001C20.3849 24.9927 20.3728 24.9824 20.3601 24.9716C20.1545 24.7237 18.8833 23.1737 17.588 21.1857C17.1994 20.5522 16.9472 20.0582 16.9956 19.9304C17.1223 19.5982 19.3805 19.4164 20.0759 19.7176C20.2874 19.809 20.2821 19.93 20.2821 20.0005C20.2821 20.3046 20.2666 21.1206 20.2666 21.1206C20.2668 21.2892 20.4076 21.4259 20.581 21.4256C20.7548 21.4256 20.895 21.2883 20.8945 21.1193L20.8912 19.0861H20.8906C20.8906 18.9096 20.6926 18.8655 20.6555 18.8586C20.2925 18.8565 19.5554 18.8543 18.7639 18.8543C17.0175 18.8543 16.6272 18.9241 16.3305 18.7353C15.6877 18.3262 14.6366 15.5688 14.6121 14.0174C14.5772 11.8288 15.9096 9.93399 17.7857 8.99517C18.5696 8.61104 19.4549 8.39453 20.3899 8.39453C23.3594 8.39453 25.8049 10.576 26.1302 13.3827C26.1305 13.3848 26.1305 13.388 26.1311 13.3902C26.1908 14.0687 22.3485 14.2129 21.5885 14.0155C21.472 13.9851 21.4422 13.8691 21.4422 13.8191C21.4413 13.3031 21.4378 11.8511 21.4378 11.8511C21.4372 11.6824 21.2964 11.5455 21.1229 11.5459H21.1226C20.9495 11.5462 20.8089 11.6834 20.8089 11.8524L20.8155 14.5271C20.821 14.6956 20.9662 14.741 21.006 14.7486C21.4382 14.7488 22.4489 14.7478 23.3903 14.7478C24.6627 14.7478 25.1971 14.8913 25.5527 15.1548C25.7892 15.3303 25.8807 15.6663 25.8007 16.1029C25.0872 19.9871 20.5664 24.7993 20.3966 25L20.3959 25.0001ZM32.6568 15.9348C33.7974 16.4106 34.5041 16.9385 34.5041 18.0972C34.5041 19.2809 33.5829 20.0454 32.1576 20.0454C31.0025 20.0454 30.0754 19.5362 29.6137 18.6481L29.5389 18.5049L30.897 17.739L30.986 17.8805C31.2917 18.367 31.6335 18.5744 32.1295 18.5744C32.5569 18.5744 32.8441 18.39 32.8441 18.1154C32.8441 17.8112 32.6362 17.6972 31.9937 17.4234L31.6671 17.2871C30.7956 16.9256 29.9883 16.4232 29.9883 15.2065C29.9883 14.1131 30.8494 13.3495 32.0825 13.3495C33.0166 13.3495 33.6569 13.7015 34.0976 14.4568L34.1793 14.5971L32.8636 15.4201L32.7729 15.2621C32.5529 14.8791 32.3458 14.8023 32.0825 14.8023C31.8073 14.8023 31.63 14.95 31.63 15.1792C31.63 15.4424 31.7606 15.5579 32.3299 15.798L32.6568 15.9348ZM42.2693 16.1588L43.228 13.557H44.8735L42.4348 20.1528H42.0694L40.5901 17.0638C40.5213 16.9223 40.4504 16.7465 40.3893 16.5855C40.3268 16.7468 40.2541 16.923 40.1852 17.0645L38.6481 20.1528H38.2851L35.8074 13.557H37.5651L38.5344 16.1588C38.5962 16.3247 38.6596 16.5271 38.7151 16.7148C38.781 16.521 38.8602 16.3119 38.9429 16.1432L40.2159 13.5026H40.5681L41.8608 16.1435C41.9432 16.312 42.0227 16.5213 42.0883 16.7151C42.144 16.5271 42.2079 16.3247 42.2693 16.1588ZM46.7924 19.9634V13.4222H48.4532V19.9634H46.7924ZM53.8985 17.7657V16.3039H56.9823V19.2355L56.9185 19.2866C56.5658 19.5686 55.6304 20.0455 54.3634 20.0455C52.2258 20.0455 50.7336 18.667 50.7336 16.6931C50.7336 14.7558 52.1735 13.3496 54.1575 13.3496C55.2485 13.3496 56.0482 13.6489 56.6018 14.2648L56.7099 14.3851L55.5779 15.4759L55.4549 15.3526C55.1388 15.0353 54.8112 14.8387 54.1574 14.8387C53.1412 14.8387 52.4314 15.6012 52.4314 16.6931C52.4314 17.8305 53.1894 18.5656 54.3633 18.5656C54.7527 18.5656 55.1581 18.5003 55.434 18.396V17.7657L53.8985 17.7657ZM62.3146 17.7657V16.3039H65.3984V19.2355L65.3346 19.2866C64.9816 19.5686 64.0465 20.0455 62.7798 20.0455C60.6423 20.0455 59.1497 18.667 59.1497 16.6931C59.1497 14.7558 60.5899 13.3496 62.5733 13.3496C63.6649 13.3496 64.4646 13.6489 65.0179 14.2648L65.1263 14.3851L63.9946 15.4759L63.8714 15.3526C63.5551 15.0353 63.2274 14.8387 62.5733 14.8387C61.5574 14.8387 60.8475 15.6012 60.8475 16.6931C60.8475 17.8305 61.6058 18.5656 62.7798 18.5656C63.1692 18.5656 63.5742 18.5003 63.8502 18.396V17.7657L62.3146 17.7657ZM71.4836 13.4222H73.2195L70.8369 17.775V19.9634H69.1672V17.8679L66.6291 13.4222H68.4813L69.6543 15.5078C69.7805 15.7347 69.9122 16.0346 70.0119 16.2781C70.107 16.0366 70.2329 15.7394 70.3581 15.5098L71.4836 13.4222Z" fill="white"/>
</svg>
