<svg width="72" height="32" viewBox="0 0 72 32" fill="none" xmlns="http://www.w3.org/2000/svg">
<path d="M0.0126953 4C0.0126953 1.79086 1.80356 0 4.0127 0H67.6665C69.8757 0 71.6666 1.79086 71.6666 4V27.3486C71.6666 29.5577 69.8757 31.3486 67.6666 31.3486H4.0127C1.80356 31.3486 0.0126953 29.5577 0.0126953 27.3486V4Z" fill="white" fill-opacity="0.03"/>
<path d="M4.0127 0.5H67.667C69.5998 0.500239 71.167 2.06715 71.167 4V27.3486C71.167 29.2815 69.5998 30.8484 67.667 30.8486H4.0127C2.07972 30.8486 0.512731 29.2816 0.512695 27.3486V4C0.512695 2.067 2.0797 0.5 4.0127 0.5Z" stroke="white" stroke-opacity="0.17"/>
<path d="M25.0268 14.5681H19.8069V16.0591H23.506C23.3211 18.1666 21.5126 19.0612 19.8069 19.0612C17.6286 19.0612 15.7174 17.3912 15.7174 15.0651C15.7174 12.7986 17.5258 11.0491 19.8069 11.0491C21.5537 11.0491 22.6018 12.1227 22.6018 12.1227L23.691 11.0292C23.691 11.0292 22.2936 9.53809 19.7658 9.53809C16.5394 9.55797 14.0322 12.2022 14.0322 15.0452C14.0322 17.8485 16.375 20.5722 19.848 20.5722C22.8895 20.5722 25.1295 18.5443 25.1295 15.5621C25.1295 14.9259 25.0268 14.5681 25.0268 14.5681ZM29.3013 13.4945C27.164 13.4945 25.6227 15.1048 25.6227 17.0135C25.6227 18.9221 27.1024 20.5722 29.3219 20.5722C31.3153 20.5722 32.9593 19.0811 32.9593 17.0532C32.9799 14.6873 31.0687 13.4945 29.3013 13.4945ZM29.3219 14.8862C30.3699 14.8862 31.3769 15.7013 31.3769 17.0333C31.3769 18.3256 30.3905 19.1805 29.3219 19.1805C28.1505 19.1805 27.2257 18.2859 27.2257 17.0333C27.2257 15.8007 28.1505 14.8862 29.3219 14.8862ZM37.2955 13.4945C35.1582 13.4945 33.6169 15.1048 33.6169 17.0135C33.6169 18.9221 35.0966 20.5722 37.316 20.5722C39.3094 20.5722 40.9535 19.0811 40.9535 17.0532C40.974 14.6873 39.0628 13.4945 37.2955 13.4945ZM37.316 14.8862C38.3641 14.8862 39.3711 15.7013 39.3711 17.0333C39.3711 18.3256 38.3847 19.1805 37.316 19.1805C36.1446 19.1805 35.2199 18.2859 35.2199 17.0333C35.2404 15.8007 36.1446 14.8862 37.316 14.8862ZM45.1458 13.4945C43.1729 13.4945 41.6316 15.1645 41.6316 17.0333C41.6316 19.1606 43.4195 20.5722 45.1047 20.5722C46.1528 20.5722 46.7076 20.1746 47.1186 19.7173V20.4132C47.1186 21.6259 46.3583 22.3615 45.1869 22.3615C44.0772 22.3615 43.5017 21.5663 43.3168 21.109L41.9194 21.6856C42.4126 22.6995 43.4195 23.7731 45.2074 23.7731C47.1597 23.7731 48.6599 22.5802 48.6599 20.0752V13.7132H47.1186V14.3096C46.646 13.8126 46.0089 13.4945 45.1458 13.4945ZM45.2896 14.8862C46.2555 14.8862 47.242 15.6814 47.242 17.0333C47.242 18.425 46.2555 19.1805 45.2691 19.1805C44.221 19.1805 43.2551 18.3654 43.2551 17.0532C43.2346 15.6814 44.2621 14.8862 45.2896 14.8862ZM55.4622 13.4746C53.6126 13.4746 52.0508 14.906 52.0508 17.0135C52.0508 19.2402 53.777 20.5722 55.6471 20.5722C57.1884 20.5722 58.1543 19.7571 58.7092 19.0215L57.435 18.2063C57.1062 18.7034 56.5514 19.1805 55.6471 19.1805C54.6196 19.1805 54.1469 18.6437 53.8592 18.1069L58.7708 16.1387L58.5242 15.5621C58.031 14.4289 56.9213 13.4746 55.4622 13.4746ZM55.5238 14.8464C56.202 14.8464 56.6747 15.1844 56.8802 15.6019L53.6126 16.9339C53.4688 15.9001 54.4757 14.8464 55.5238 14.8464ZM49.7286 20.3535H51.3315V9.93571H49.7286V20.3535Z" fill="white"/>
</svg>
