<svg width="69" height="32" viewBox="0 0 69 32" fill="none" xmlns="http://www.w3.org/2000/svg">
<path d="M0.666504 4C0.666504 1.79086 2.45736 0 4.6665 0H64.9616C67.1707 0 68.9616 1.79086 68.9616 4V27.3486C68.9616 29.5577 67.1707 31.3486 64.9616 31.3486H4.6665C2.45736 31.3486 0.666504 29.5577 0.666504 27.3486V4Z" fill="white" fill-opacity="0.03"/>
<path d="M4.6665 0.5H64.9614C66.8944 0.5 68.4614 2.067 68.4614 4V27.3486C68.4614 29.2816 66.8944 30.8486 64.9614 30.8486H4.6665C2.73353 30.8486 1.16654 29.2816 1.1665 27.3486V4C1.1665 2.067 2.73351 0.5 4.6665 0.5Z" stroke="white" stroke-opacity="0.17"/>
<g clip-path="url(#clip0_885_313)">
<path fill-rule="evenodd" clip-rule="evenodd" d="M59.7577 10.0724C60.5457 10.0724 61.2024 9.42185 61.2024 8.60454C61.2024 7.80391 60.5457 7.13672 59.7577 7.13672C58.9697 7.13672 58.313 7.80391 58.313 8.60454C58.3294 9.42185 58.9697 10.0724 59.7577 10.0724ZM58.5428 8.62122C58.5428 7.93735 59.101 7.37024 59.7741 7.37024C60.4472 7.37024 61.0054 7.93735 61.0054 8.62122C61.0054 9.30509 60.4472 9.8722 59.7741 9.8722C59.0846 9.85552 58.5428 9.30509 58.5428 8.62122ZM59.2159 9.35513H59.495V8.7213H59.8234L60.0696 9.33845H60.3815L60.1024 8.67126C60.2009 8.62122 60.3651 8.57118 60.3651 8.28762C60.3651 7.83727 60.0368 7.78723 59.7413 7.78723H59.2323V9.35513H59.2159ZM59.495 8.07079H59.8069C59.9711 8.07079 60.0696 8.1375 60.0696 8.27094C60.0696 8.40438 59.9711 8.4711 59.8398 8.4711H59.5114V8.07079H59.495Z" fill="white"/>
<path d="M13.6079 9.27188V9.2552V7.52051H15.3153V9.2552V9.27188V20.1638V20.1971V21.8985H13.6079V20.1805V20.1638V9.27188Z" fill="white"/>
<path d="M30.9281 16.6613C30.9774 19.28 32.5698 21.365 34.507 21.3316C36.4443 21.2982 37.971 19.1465 37.9218 16.5445C37.8725 13.9258 36.2801 11.8408 34.3429 11.8742C32.4057 11.9075 30.8789 14.0592 30.9281 16.6613ZM45.0139 13.5088C45.0632 13.6089 44.9483 13.3587 44.9483 13.3587L45.0139 13.5088ZM46.1795 24.3339C46.2616 24.2005 46.3601 24.0004 46.4915 23.7335L46.1795 24.3339ZM46.278 12.6081C46.2945 12.6581 46.3273 12.7248 46.3437 12.7915L46.9183 14.2093L46.278 12.6081ZM39.1531 19.7804C40.2038 20.7478 41.1559 21.2482 42.3708 21.2482C43.6185 21.2649 44.7184 20.6477 44.7184 19.4635C44.7184 18.4794 43.8483 17.8956 42.3051 17.2284C40.9918 16.6613 40.0232 16.2443 39.5142 15.427C39.5799 15.7939 39.6127 16.1609 39.6127 16.5445C39.6127 19.747 37.3144 22.3491 34.4906 22.3491C31.6505 22.3491 29.3685 19.747 29.3685 16.5445C29.3685 14.6096 30.2058 12.8916 31.4863 11.8408H28.0059V20.164V20.1974V21.9154H26.4627V20.2641C26.4627 20.2307 26.4627 20.1974 26.4627 20.1807V11.8408H25.1001V10.79H26.4791C26.6761 8.67165 27.9567 7.4707 29.7461 7.4707C30.9117 7.4707 31.5356 7.58746 31.9132 7.77094V9.2054C31.9132 9.30548 31.9132 9.3722 31.9132 9.3722C31.8967 9.3722 31.8639 9.3722 31.8639 9.3722C31.3057 8.85512 30.764 8.45481 29.467 8.45481C28.4492 8.45481 27.7761 9.30548 28.0059 10.7733H33.7683C33.9981 10.7399 34.2444 10.7233 34.4906 10.7233C36.5428 10.7233 38.3158 12.091 39.1202 14.0759C39.1202 13.9591 39.1038 13.8591 39.1038 13.7256C39.1038 11.6573 41.0739 10.79 43.1096 10.79C43.1917 10.79 43.2573 10.79 43.3394 10.79C44.0618 10.7733 45.0796 11.0235 45.7035 11.1903L46.278 12.6081L46.9183 14.2093L48.6585 18.496L48.8555 19.1799L49.0854 18.496L51.2688 12.9917C51.6792 11.4738 53.2717 10.8233 55.0447 10.8233C55.9313 10.8233 56.5715 10.9234 57.3431 11.207V12.8749C56.3909 12.1744 55.7014 11.7574 54.6179 11.7574C53.6657 11.7574 52.5165 12.1911 52.5165 13.6089C52.5001 14.6764 53.1404 14.8765 54.9955 15.8106C56.5223 16.4778 57.9341 17.2284 57.9506 18.9464C57.9506 21.8153 55.1597 22.3157 53.797 22.3157C52.5822 22.3157 51.4822 22.0155 50.8584 21.4984V19.6136L50.9569 19.697C52.0568 20.7478 53.0254 21.2816 54.2896 21.2816C55.5372 21.2982 56.6372 20.6811 56.6372 19.4968C56.6372 18.5127 55.7671 17.9289 54.2239 17.2617C52.7464 16.6112 51.7778 16.1775 51.3837 15.11C50.7763 16.5945 47.9854 23.5166 47.3287 25.0011H45.8184L46.1795 24.3173L46.4915 23.7168L46.5079 23.7001C46.8855 22.9495 47.4437 21.7653 47.9198 20.6144L45.0139 13.4921C44.9975 13.4421 44.9483 13.342 44.8498 13.1085C44.6199 12.5914 44.4229 12.1244 43.7991 11.8742C43.4707 11.7574 43.1096 11.7074 42.6827 11.7074C41.7305 11.7074 40.4993 12.141 40.4993 13.5588C40.4828 14.6263 41.1888 14.8265 43.0439 15.7605C44.5707 16.4277 45.9825 17.1783 45.999 18.8963C45.999 21.7653 43.2081 22.2657 41.8455 22.2657C40.7619 22.2657 39.7769 22.0321 39.1202 21.5985V19.7804H39.1531Z" fill="white"/>
<path d="M18.4835 10.8913L18.4999 12.1423V12.2257H18.5163C18.5328 12.1757 18.5656 12.1256 18.582 12.0923C19.2059 11.4084 19.9939 10.7412 21.8654 10.7412C23.6549 10.7412 24.8205 12.2924 24.8697 13.2599V20.1486V20.182V21.8833H23.3265V19.8317V13.9604C23.3265 12.7428 22.2758 11.8754 20.9953 11.8754C19.9282 11.8754 18.5492 12.8429 18.5163 13.8436V20.1653V20.2153V21.9167H16.9731V20.1653V12.3425V10.8913H17.2522H18.0895H18.4835Z" fill="white"/>
</g>
<defs>
<clipPath id="clip0_885_313">
<rect width="47.5929" height="17.8474" fill="white" transform="translate(13.6079 7.15234)"/>
</clipPath>
</defs>
</svg>
