<svg width="54" height="32" viewBox="0 0 54 32" fill="none" xmlns="http://www.w3.org/2000/svg">
<path d="M0.666504 4.17432C0.666504 1.96518 2.45737 0.174316 4.6665 0.174316H49.6665C51.8756 0.174316 53.6665 1.96518 53.6665 4.17432V27.1743C53.6665 29.3835 51.8756 31.1743 49.6665 31.1743H4.6665C2.45737 31.1743 0.666504 29.3835 0.666504 27.1743V4.17432Z" fill="white" fill-opacity="0.03"/>
<path d="M4.6665 0.674316H49.6665C51.5995 0.674316 53.1665 2.24132 53.1665 4.17432V27.1743C53.1665 29.1073 51.5995 30.6743 49.6665 30.6743H4.6665C2.73351 30.6743 1.1665 29.1073 1.1665 27.1743V4.17432C1.1665 2.24132 2.73351 0.674316 4.6665 0.674316Z" stroke="white" stroke-opacity="0.17"/>
<g clip-path="url(#clip0_885_308)">
<path d="M12.066 16.7024V9.76514H10.3911V16.7897C10.3911 19.4294 12.24 21.1746 14.6327 21.1746C15.8073 21.1746 16.8297 20.7165 17.591 19.9311V20.9783H19.2442V9.76514H17.5693V16.7024C17.5693 18.4913 16.3729 19.6912 14.8285 19.6912C13.2624 19.6693 12.066 18.5131 12.066 16.7024ZM20.8973 21.0001H22.4852V19.9748C23.2248 20.7383 24.2689 21.1964 25.4 21.1964C27.7927 21.1964 29.6851 19.2985 29.6851 16.9206C29.6851 14.5427 27.7927 12.6448 25.4 12.6448C24.2689 12.6448 23.2465 13.1029 22.5069 13.8664V9.76514H20.8973V21.0001ZM22.4852 16.9206C22.4852 15.3281 23.7468 14.0846 25.2912 14.0846C26.8356 14.0846 28.0972 15.3281 28.0972 16.9206C28.0972 18.4913 26.8356 19.7566 25.2912 19.7566C23.7251 19.7566 22.4852 18.4913 22.4852 16.9206ZM30.6422 16.8988C30.6422 19.3421 32.5346 21.1746 34.9708 21.1746C36.4499 21.1746 37.668 20.5201 38.4946 19.4294L37.32 18.5568C36.711 19.3639 35.9061 19.7566 34.9708 19.7566C33.6004 19.7566 32.4911 18.7531 32.2736 17.4224H38.9079V16.8988C38.9079 14.4555 37.1895 12.6448 34.8403 12.6448C32.4476 12.6448 30.6422 14.5863 30.6422 16.8988ZM34.7968 14.0628C35.9931 14.0628 36.9937 14.8918 37.2765 16.1571H32.2953C32.5998 14.8918 33.6004 14.0628 34.7968 14.0628ZM44.2806 14.2591V12.7539H43.7151C42.8233 12.7539 42.1707 13.1683 41.7574 13.8228V12.8193H40.1913V21.0001H41.8009V16.3316C41.8009 15.0663 42.5622 14.2373 43.6281 14.2373H44.2806V14.2591Z" fill="white"/>
</g>
<defs>
<clipPath id="clip0_885_308">
<rect width="33.8895" height="11.4095" fill="white" transform="translate(10.3911 9.76514)"/>
</clipPath>
</defs>
</svg>
