<svg width="48" height="32" viewBox="0 0 48 32" fill="none" xmlns="http://www.w3.org/2000/svg">
<path d="M0.96167 4.17432C0.96167 1.96518 2.75253 0.174316 4.96167 0.174316H43.9617C46.1708 0.174316 47.9617 1.96518 47.9617 4.17432V27.1743C47.9617 29.3835 46.1708 31.1743 43.9617 31.1743H4.96167C2.75253 31.1743 0.96167 29.3835 0.96167 27.1743V4.17432Z" fill="white" fill-opacity="0.03"/>
<path d="M4.96167 0.674316H43.9617C45.8947 0.674316 47.4617 2.24132 47.4617 4.17432V27.1743C47.4617 29.1073 45.8947 30.6743 43.9617 30.6743H4.96167C3.02867 30.6743 1.46167 29.1073 1.46167 27.1743V4.17432C1.46167 2.30159 2.9325 0.772738 4.78198 0.679199L4.96167 0.674316Z" stroke="white" stroke-opacity="0.17"/>
<g clip-path="url(#clip0_885_321)">
<path d="M34.4222 17.5599C34.4362 17.7849 34.3941 17.9958 34.296 18.1785C34.1278 18.4878 33.9596 18.7971 33.7774 19.1205C33.6232 19.4017 33.5111 19.6969 33.483 20.0203C33.469 20.1047 33.455 20.2031 33.5111 20.3015C33.7494 19.95 33.9736 19.6266 34.2259 19.3033C34.5203 18.9377 34.8286 18.5722 35.1931 18.2769C35.3893 18.1082 35.5996 17.9676 35.8659 17.8973C36.2163 17.7989 36.4966 17.9114 36.6929 18.2207C36.8611 18.4878 36.9031 18.7831 36.9171 19.0924C36.9592 20.2171 36.1742 21.4403 35.137 21.8761C34.8286 22.0027 34.5063 22.0589 34.1839 22.0027C34.0858 21.9886 34.0437 22.0167 34.0157 22.1011C33.5671 23.1977 33.2588 24.3225 33.1046 25.5034C33.0625 25.7987 32.9224 25.869 32.6701 25.7003C32.2776 25.4191 32.0814 25.0395 32.0533 24.5615C32.0253 23.9429 32.1935 23.3383 32.3757 22.7619C32.5299 22.2979 32.7121 21.834 32.9224 21.3841C32.9504 21.3278 32.9784 21.2716 32.9364 21.1872C32.642 20.6389 32.6561 20.0625 32.8383 19.486C33.0766 18.7128 33.5251 18.0661 34.1278 17.5177C34.1558 17.4896 34.1979 17.4615 34.2259 17.4474C34.3521 17.4193 34.4222 17.4334 34.4222 17.5599ZM9.02386 12.7938C10.9161 12.85 12.6682 13.4405 14.3222 14.2982C15.4435 14.8746 16.4387 15.6057 17.2937 16.5476C17.7423 17.0397 18.1067 17.574 18.387 18.1785C18.8356 19.1908 18.7094 20.1468 18.0927 21.0466C17.5881 21.7777 16.8732 22.1995 16.0462 22.4666C14.7567 22.9025 13.4391 22.9306 12.1216 22.6072C11.9954 22.5791 11.9814 22.6072 11.9674 22.7197C11.9393 23.0852 11.8412 23.1977 11.5469 23.2258C11.1965 23.2539 10.9862 23.1274 10.9021 22.804C10.8601 22.6353 10.832 22.4526 10.818 22.2698C10.804 22.1573 10.7619 22.1011 10.6638 22.0448C9.79478 21.6371 9.03788 21.1029 8.37909 20.3999C8.25294 20.2593 8.12679 20.1047 8.02868 19.9359C7.77638 19.5001 7.84646 19.0924 8.25294 18.7831C8.51926 18.5722 8.81361 18.4175 9.12198 18.3051C9.62658 18.1223 10.1452 17.9536 10.6778 17.8833C10.804 17.8692 10.8601 17.813 10.8601 17.6864C10.8601 17.0819 10.9301 16.4914 11.0423 15.9009C11.0563 15.8306 11.0843 15.7463 11.1124 15.676C11.1684 15.5213 11.2665 15.4932 11.4067 15.5916C11.5469 15.7041 11.631 15.8447 11.687 15.9993C11.8833 16.4914 11.9113 16.9975 11.9253 17.5177C11.9393 17.7286 11.9393 17.7286 12.1356 17.7286C13.0186 17.7005 13.8736 17.8411 14.7006 18.1363C15.023 18.2488 15.3174 18.4316 15.5276 18.7128C15.808 19.0783 15.808 19.486 15.5136 19.8235C15.1632 20.2312 14.7847 20.2452 14.3783 20.1047C14.3362 20.0906 14.2941 20.0625 14.2801 20.0062C14.2801 19.95 14.3222 19.9219 14.3642 19.8938C14.4764 19.8235 14.6025 19.7813 14.7147 19.6829C14.8829 19.5142 14.8688 19.3736 14.6446 19.2752C14.3502 19.1486 14.0418 19.0783 13.7335 19.008C13.1868 18.8956 12.6402 18.8112 12.0795 18.7971C11.9674 18.7971 11.9253 18.8112 11.9253 18.9377C11.9534 19.8094 11.9674 20.6951 11.9814 21.5668C11.9814 21.6371 11.9674 21.6934 12.0795 21.7074C13.3831 21.9183 14.6726 21.9042 15.9061 21.3841C16.3967 21.1732 16.8452 20.8779 17.1255 20.3999C17.518 19.7391 17.504 19.0643 17.1956 18.3754C16.7751 17.4334 16.0883 16.7023 15.2753 16.0837C13.6634 14.8746 11.8552 14.1435 9.87888 13.792C8.9678 13.6374 8.04269 13.5811 7.11759 13.6936C6.87931 13.7217 6.65504 13.7639 6.40274 13.8904C6.52889 13.9467 6.61299 13.9467 6.69709 13.9607C6.78119 13.9748 6.86529 13.9888 6.93537 14.031C6.99144 14.0732 7.03349 14.1294 7.03349 14.1997C7.01947 14.27 6.96341 14.3122 6.90734 14.3263C6.64102 14.3825 6.36069 14.3684 6.10839 14.256C5.9542 14.1857 5.94018 14.0451 5.98223 13.9045C6.10839 13.4827 6.38872 13.2015 6.80922 13.075C7.55211 12.8782 8.28098 12.7797 9.02386 12.7938ZM31.9973 17.588C32.2776 17.574 32.4879 17.7005 32.642 17.9114C32.7121 18.0098 32.7682 18.1082 32.8243 18.2066C32.9224 18.4035 32.8803 18.5159 32.6561 18.5581C32.2776 18.6284 31.8992 18.6565 31.5207 18.6847C31.3245 18.6987 31.1282 18.7128 30.918 18.7268C30.8479 18.7268 30.8058 18.755 30.7778 18.8253C30.7498 18.9377 30.7077 19.0502 30.6657 19.1486C30.6236 19.247 30.6517 19.2752 30.7638 19.2611C31.1002 19.233 31.4366 19.233 31.773 19.2611C31.9552 19.2752 32.0113 19.3314 32.0113 19.5001C32.0113 19.9641 32.0113 19.9922 31.5768 20.0203C31.2123 20.0344 30.8479 20.0625 30.4835 20.0765C30.3713 20.0765 30.3153 20.1187 30.3012 20.2312C30.2592 20.414 30.2031 20.6108 30.133 20.7936C30.091 20.9201 30.133 20.9482 30.2452 20.9201C30.7358 20.8217 31.2404 20.7233 31.745 20.667C31.9132 20.653 32.0253 20.6951 32.1374 20.8076C32.3056 21.0045 32.3056 21.2013 32.1234 21.37C31.745 21.7215 31.3104 21.9464 30.8339 22.1292C30.6657 22.1995 30.4975 22.2276 30.3153 22.2698C29.6425 22.4385 28.9977 21.7637 29.0818 21.0747C29.1238 20.8076 29.1659 20.5405 29.264 20.2734C29.3061 20.1609 29.3201 20.0625 29.278 19.95C29.25 19.8797 29.236 19.7953 29.222 19.7251C29.1939 19.472 29.25 19.4017 29.5023 19.3736C29.6144 19.3595 29.6565 19.3173 29.6985 19.233C29.7686 19.0643 29.8667 18.8956 29.9368 18.7268C29.9368 18.7128 29.9368 18.7128 29.9368 18.6847C29.6565 18.6565 29.4182 18.5581 29.264 18.291C29.1379 18.0661 29.1659 17.9817 29.4042 17.9255C29.9228 17.7989 30.4554 17.7286 30.9881 17.6724C31.3245 17.6021 31.6609 17.588 31.9973 17.588ZM40.982 16.5336C41.1081 17.2366 41.2062 17.9395 41.2483 18.6565C41.2483 18.7831 41.2904 18.8253 41.4165 18.8253C42.1033 18.8253 42.7901 18.8253 43.477 18.8253C43.5891 18.8253 43.6872 18.8534 43.7713 18.9377V19.5704C43.7012 19.6688 43.6031 19.6969 43.491 19.6969C42.8042 19.6969 42.1314 19.6969 41.4445 19.6969C41.3184 19.6969 41.3044 19.7251 41.3044 19.8516C41.3184 20.5264 41.2904 21.1872 41.2203 21.848C41.1922 22.1011 41.1502 22.1433 40.9119 22.1433C40.7998 22.1433 40.6876 22.1433 40.5755 22.1433C40.3933 22.1433 40.3232 22.073 40.3512 21.8902C40.4353 21.2153 40.4493 20.5405 40.4493 19.8656C40.4493 19.7391 40.4073 19.711 40.2952 19.711C39.6224 19.711 38.9636 19.711 38.2908 19.711C38.0525 19.711 37.9964 19.6548 37.9964 19.4157C37.9964 19.3173 37.9964 19.2049 37.9964 19.1064C37.9964 18.9096 38.0525 18.8534 38.2487 18.8534C38.9075 18.8534 39.5663 18.8534 40.2251 18.8534C40.3652 18.8534 40.4073 18.8253 40.3933 18.6706C40.3372 17.9958 40.2531 17.3068 40.127 16.6461C40.0849 16.4211 40.127 16.3508 40.3512 16.3508C40.4774 16.3508 40.5895 16.3508 40.7157 16.3508C40.8699 16.3086 40.9539 16.3649 40.982 16.5336ZM19.6485 17.7427C19.8308 17.827 19.9008 17.9958 19.9429 18.1645C20.041 18.6003 20.069 19.0643 20.0971 19.5142C20.1251 19.8375 20.1251 20.175 20.1531 20.5124C20.1672 20.892 20.1952 21.2575 20.1672 21.6371C20.1531 21.9183 20.041 22.073 19.8448 22.1011C19.5084 22.1433 19.2701 22.0308 19.186 21.7637C19.1299 21.5668 19.1159 21.37 19.1019 21.1732C19.0598 20.2031 19.0739 19.247 19.2421 18.291C19.2701 18.1363 19.3121 17.9817 19.3822 17.8411C19.4383 17.7146 19.5364 17.6864 19.6485 17.7427ZM23.1948 17.5459C23.6854 17.5459 24.1619 17.588 24.6105 17.7708C24.7226 17.813 24.8768 17.8411 24.8768 17.9958C24.8768 18.1645 24.7787 18.2769 24.6245 18.3613C24.4142 18.4738 24.19 18.4738 23.9657 18.4878C23.377 18.53 22.7743 18.5159 22.1856 18.5862C21.9052 18.6144 21.6249 18.6565 21.3586 18.7409C21.3025 18.755 21.2324 18.769 21.2324 18.8393C21.2324 18.9237 21.3165 18.9237 21.3726 18.9377C21.7651 19.0221 22.1715 19.0502 22.578 19.0924C23.0126 19.1486 23.4611 19.2049 23.8956 19.3033C24.9328 19.5563 24.9749 20.906 24.4423 21.4262C24.1479 21.7215 23.7975 21.8761 23.391 21.9464C22.564 22.1011 21.7931 21.9324 21.1203 21.4262C20.9381 21.2856 20.7699 21.1169 20.6858 20.892C20.5596 20.5546 20.6998 20.2171 21.0222 20.0344C21.2605 19.8938 21.5408 19.8516 21.8071 19.8516C22.3678 19.8656 22.9004 19.95 23.405 20.189C23.4891 20.2312 23.5872 20.2593 23.5732 20.3718C23.5732 20.4702 23.4891 20.5264 23.405 20.5686C23.0266 20.7514 22.6481 20.8357 22.2416 20.653C22.0174 20.5546 21.7791 20.4421 21.5408 20.3858C21.4146 20.3577 21.3025 20.3718 21.1904 20.414C21.0923 20.4561 21.0222 20.5264 21.0082 20.6389C20.9941 20.7373 21.0782 20.8076 21.1483 20.8498C21.3165 20.9482 21.5128 21.0045 21.695 21.0185C22.3678 21.0607 23.0266 20.9904 23.6433 20.6811C23.6994 20.653 23.7414 20.6248 23.7975 20.5967C23.9096 20.5264 24.0498 20.4561 24.0218 20.2874C24.0077 20.1328 23.8676 20.0625 23.7414 20.0062C23.363 19.8375 22.9565 19.7953 22.55 19.7391C22.0314 19.6829 21.5128 19.6688 20.9941 19.5845C20.4615 19.5001 20.2793 19.1767 20.4475 18.6565C20.5316 18.3754 20.7278 18.1785 20.9661 18.0239C21.3726 17.7708 21.8351 17.6583 22.2977 17.588C22.6061 17.5599 22.9004 17.5318 23.1948 17.5459ZM27.61 16.9975C27.7642 17.0819 27.8904 17.2084 28.0025 17.335C28.423 17.7989 28.6473 18.3472 28.7594 18.9518C28.8996 19.6829 28.8996 20.414 28.6613 21.131C28.6192 21.2435 28.5632 21.3559 28.4791 21.4403C28.1847 21.7918 27.7782 21.8058 27.4699 21.4825C27.1615 21.1591 26.9372 20.7654 26.727 20.3718C26.5728 20.0906 26.4186 19.8094 26.2784 19.5282C26.2504 19.486 26.2364 19.4298 26.1803 19.4298C26.1243 19.4439 26.1383 19.5001 26.1243 19.5563C26.0822 19.8938 26.0682 20.2452 26.0682 20.5967C26.0542 20.9342 26.0542 21.2856 25.9701 21.609C25.914 21.834 25.8019 21.9464 25.6056 21.9605C25.4234 21.9745 25.2412 21.8621 25.1711 21.6652C25.059 21.37 25.073 21.0607 25.073 20.7654C25.087 20.0203 25.1851 19.2892 25.3954 18.5722C25.4374 18.4175 25.5075 18.2488 25.5916 18.1082C25.7738 17.8411 25.9701 17.813 26.2084 18.052C26.5868 18.4457 26.8812 18.8956 27.1615 19.3595C27.3437 19.6548 27.5399 19.95 27.7222 20.2452C27.7502 20.3015 27.7922 20.3718 27.8623 20.3577C27.9464 20.3296 27.9184 20.2452 27.9184 20.2031C27.9044 19.7251 27.7922 19.2611 27.6801 18.8112C27.582 18.3613 27.4558 17.9255 27.3297 17.4896C27.3017 17.3771 27.2736 17.2647 27.2876 17.1522C27.3437 16.9413 27.4418 16.8991 27.61 16.9975ZM10.7199 18.8534C10.3695 18.8815 10.0331 18.9096 9.69667 18.9658C9.27616 19.0361 8.85566 19.1064 8.4632 19.2892C8.19688 19.4157 8.16884 19.5563 8.36508 19.7953C8.40713 19.8375 8.44918 19.8938 8.49123 19.9359C8.8837 20.3437 9.36026 20.653 9.85085 20.9342C10.1592 21.1169 10.4816 21.2575 10.818 21.3559C10.818 21.3419 10.832 21.3419 10.832 21.3278C10.832 20.5264 10.832 19.7251 10.832 18.9237C10.818 18.8393 10.776 18.8534 10.7199 18.8534ZM35.936 18.9237L35.2211 19.7813C34.9688 20.1328 34.7305 20.4983 34.5203 20.906C34.7586 20.8779 34.9688 20.8217 35.165 20.7233C35.8519 20.3999 36.2724 19.8797 36.3424 19.1064C36.3565 18.9799 36.3845 18.8112 36.2303 18.755C36.1182 18.7128 36.0201 18.8393 35.936 18.9237ZM20.6297 13.6233C20.9521 13.6233 21.2324 13.7358 21.4567 13.9888C21.4987 14.0451 21.5548 14.0591 21.6109 14.0732C22.1856 14.1997 22.4659 14.6918 22.2697 15.2542C22.2136 15.4088 22.1435 15.5635 22.0314 15.69C21.4987 16.2946 20.882 16.7304 20.0831 16.9132C19.7747 16.9835 19.4523 16.9694 19.158 16.871C19.0739 16.8429 19.0318 16.8569 19.0038 16.9413V16.9554C18.9337 17.0678 18.8776 17.2225 18.7094 17.1944C18.5412 17.1803 18.4711 17.0397 18.4151 16.9132C18.387 16.8569 18.359 16.7867 18.373 16.7304C18.401 16.5055 18.3029 16.3227 18.1768 16.154C18.0787 15.9993 18.0366 15.8166 18.0366 15.6338C18.0366 15.3807 18.1067 15.1417 18.2469 14.9308C18.8356 14.1013 19.6065 13.6374 20.6297 13.6233ZM21.2464 14.6356C21.0923 14.6637 20.9381 14.7199 20.7979 14.8183C20.4615 15.0292 20.1531 15.2823 19.8728 15.5775C19.7326 15.7322 19.6205 15.8869 19.4944 16.0556C19.4523 16.1259 19.4523 16.154 19.5364 16.154H19.8167C20.3914 16.154 20.91 15.9712 21.3586 15.6197C21.5128 15.4932 21.6529 15.3526 21.723 15.1558C21.8211 14.8183 21.5828 14.5653 21.2464 14.6356ZM19.8308 14.5512C19.3962 14.5372 18.7374 15.0433 18.6393 15.451C18.6113 15.5916 18.6253 15.6619 18.7094 15.7884C19.0178 15.3245 19.3962 14.9168 19.8308 14.5512Z" fill="white"/>
<path d="M25.7871 5.17432C25.3526 5.17432 24.918 5.20243 24.5115 5.25867C23.5584 5.38521 22.6193 5.51174 21.6942 5.76481C20.7551 6.01788 19.83 6.3553 18.9609 6.79114C17.1388 7.67688 15.4988 8.88598 14.1392 10.3763C13.5785 10.9808 13.0879 11.6275 12.6254 12.3024C12.5273 12.457 12.5693 12.5695 12.7375 12.6258C12.8356 12.6679 12.9478 12.6961 13.0459 12.7382C13.2421 12.7945 13.2982 12.7804 13.4103 12.6117C13.6766 12.2321 13.9289 11.8384 14.2513 11.487C14.5877 11.1214 14.9241 10.7418 15.2605 10.3763C15.653 10.0107 16.0595 9.65924 16.466 9.32182C18.0358 8.05648 19.886 7.1145 21.8203 6.56619C23.8668 5.98976 26.0254 5.86322 28.1138 6.17253C29.4454 6.36936 30.749 6.74896 31.9965 7.29728C33.3981 7.91589 34.7157 8.75945 35.8791 9.77172C37.3368 11.0371 38.5002 12.5836 39.3693 14.3129C39.4674 14.5097 39.5655 14.7206 39.6636 14.9174C39.8879 15.4236 39.8038 15.4236 40.2663 15.4095C40.3224 15.4095 40.3785 15.4095 40.4486 15.4095C40.6168 15.4095 40.7289 15.3392 40.6728 15.1564C40.3364 14.2566 39.8318 13.385 39.3132 12.5695C38.7806 11.74 38.1779 10.9668 37.505 10.2497L37.463 10.2076C36.3977 9.08281 35.1783 8.0846 33.8327 7.32539C33.3 7.00203 32.7394 6.7349 32.1647 6.49589C31.7161 6.27094 31.2396 6.11629 30.763 5.96164C29.7678 5.63827 28.7306 5.41333 27.6793 5.30085C27.0766 5.23055 26.4459 5.18838 25.8291 5.18838C25.8011 5.17432 25.7871 5.17432 25.7871 5.17432Z" fill="white"/>
</g>
<defs>
<clipPath id="clip0_885_321">
<rect width="38" height="21" fill="white" transform="translate(5.96167 5.17432)"/>
</clipPath>
</defs>
</svg>
