<svg width="25" height="24" viewBox="0 0 25 24" fill="none" xmlns="http://www.w3.org/2000/svg">
<path opacity="0.2" d="M21.5 6V16.5C21.5 16.8978 21.342 17.2794 21.0607 17.5607C20.7794 17.842 20.3978 18 20 18H5C4.60218 18 4.22064 17.842 3.93934 17.5607C3.65804 17.2794 3.5 16.8978 3.5 16.5V6C3.5 5.60218 3.65804 5.22064 3.93934 4.93934C4.22064 4.65804 4.60218 4.5 5 4.5H20C20.3978 4.5 20.7794 4.65804 21.0607 4.93934C21.342 5.22064 21.5 5.60218 21.5 6Z" fill="white"/>
<path d="M20 3.75H5C4.40326 3.75 3.83097 3.98705 3.40901 4.40901C2.98705 4.83097 2.75 5.40326 2.75 6V16.5C2.75 17.0967 2.98705 17.669 3.40901 18.091C3.83097 18.5129 4.40326 18.75 5 18.75H20C20.5967 18.75 21.169 18.5129 21.591 18.091C22.0129 17.669 22.25 17.0967 22.25 16.5V6C22.25 5.40326 22.0129 4.83097 21.591 4.40901C21.169 3.98705 20.5967 3.75 20 3.75ZM20.75 16.5C20.75 16.6989 20.671 16.8897 20.5303 17.0303C20.3897 17.171 20.1989 17.25 20 17.25H5C4.80109 17.25 4.61032 17.171 4.46967 17.0303C4.32902 16.8897 4.25 16.6989 4.25 16.5V6C4.25 5.80109 4.32902 5.61032 4.46967 5.46967C4.61032 5.32902 4.80109 5.25 5 5.25H20C20.1989 5.25 20.3897 5.32902 20.5303 5.46967C20.671 5.61032 20.75 5.80109 20.75 6V16.5ZM16.25 21C16.25 21.1989 16.171 21.3897 16.0303 21.5303C15.8897 21.671 15.6989 21.75 15.5 21.75H9.5C9.30109 21.75 9.11032 21.671 8.96967 21.5303C8.82902 21.3897 8.75 21.1989 8.75 21C8.75 20.8011 8.82902 20.6103 8.96967 20.4697C9.11032 20.329 9.30109 20.25 9.5 20.25H15.5C15.6989 20.25 15.8897 20.329 16.0303 20.4697C16.171 20.6103 16.25 20.8011 16.25 21Z" fill="white"/>
</svg>
