<svg width="25" height="24" viewBox="0 0 25 24" fill="none" xmlns="http://www.w3.org/2000/svg">
<path opacity="0.2" d="M20.4776 16.17C19.7504 17.561 18.6721 18.7376 17.3498 19.583C16.0274 20.4285 14.5069 20.9134 12.9392 20.9897L13.2364 19.4484C13.2585 19.3327 13.253 19.2135 13.2204 19.1003C13.1879 18.9871 13.1291 18.8831 13.0489 18.7969L11.1982 16.8909C11.0985 16.7833 11.0325 16.6487 11.0085 16.5039C10.9845 16.359 11.0035 16.2104 11.0632 16.0763L12.3476 13.1944C12.4136 13.0463 12.5259 12.9236 12.6675 12.8447C12.8092 12.7657 12.9726 12.7348 13.1332 12.7566L15.2726 13.0453C15.3762 13.0595 15.4758 13.0949 15.5651 13.1494L20.4776 16.17ZM11.442 8.90626L12.5942 8.27251C12.645 8.24501 12.6922 8.21132 12.7348 8.1722L15.2576 5.89126C15.3832 5.77705 15.4663 5.62363 15.4934 5.45606C15.5204 5.2885 15.4899 5.1167 15.4067 4.96876L14.4223 3.20532C13.7908 3.06854 13.1465 2.99971 12.5004 3.00001C10.4461 2.99688 8.45299 3.69952 6.8548 4.99032L5.75042 7.60126C5.67583 7.77801 5.6718 7.97663 5.73917 8.15626L6.8173 11.0316C6.8616 11.1491 6.93468 11.2535 7.02985 11.3354C7.12501 11.4173 7.23922 11.474 7.36199 11.5003L7.61417 11.5547L8.86292 9.37501C8.92884 9.26083 9.0237 9.16605 9.13792 9.10021C9.25215 9.03438 9.38171 8.99982 9.51355 9.00001H11.0801C11.2068 9.00022 11.3314 8.96794 11.442 8.90626Z" fill="white"/>
<path d="M12.5 2.25C10.5716 2.25 8.68657 2.82183 7.08319 3.89317C5.47982 4.96451 4.23013 6.48726 3.49218 8.26884C2.75422 10.0504 2.56114 12.0108 2.93735 13.9021C3.31355 15.7934 4.24215 17.5307 5.60571 18.8943C6.96928 20.2579 8.70656 21.1865 10.5979 21.5627C12.4892 21.9389 14.4496 21.7458 16.2312 21.0078C18.0127 20.2699 19.5355 19.0202 20.6068 17.4168C21.6782 15.8134 22.25 13.9284 22.25 12C22.2473 9.41498 21.2192 6.93661 19.3913 5.10872C17.5634 3.28084 15.085 2.25273 12.5 2.25ZM20.75 12C20.7508 13.0584 20.5471 14.107 20.15 15.0881L15.9594 12.5109C15.7812 12.401 15.5819 12.3298 15.3744 12.3019L13.235 12.0131C12.9402 11.9747 12.6406 12.0241 12.3738 12.1552C12.107 12.2863 11.8848 12.4932 11.735 12.75H10.9175L10.5613 12.0131C10.4628 11.8079 10.3186 11.628 10.1399 11.4871C9.96114 11.3462 9.75252 11.2481 9.53 11.2003L8.78 11.0381L9.51313 9.75H11.0797C11.3332 9.7495 11.5825 9.68501 11.8044 9.5625L12.9528 8.92875C13.0537 8.87251 13.148 8.80522 13.2341 8.72812L15.7569 6.44625C16.0098 6.21957 16.1779 5.91345 16.2335 5.57838C16.2891 5.24331 16.2287 4.89931 16.0625 4.60312L16.0288 4.54219C17.4404 5.21156 18.6333 6.26756 19.469 7.58761C20.3047 8.90767 20.7489 10.4377 20.75 12ZM13.9353 3.87563L14.75 5.33438L12.2272 7.61625L11.0797 8.25H9.51313C9.24945 8.24961 8.99033 8.31874 8.76188 8.45041C8.53342 8.58208 8.34372 8.77165 8.21188 9L7.39344 10.4278L6.44188 7.89281L7.4675 5.4675C8.37532 4.76606 9.41965 4.26197 10.5336 3.98752C11.6475 3.71307 12.8065 3.67432 13.9363 3.87375L13.9353 3.87563ZM4.25 12C4.24875 10.7738 4.52233 9.56284 5.05063 8.45625L6.11375 11.2941C6.20235 11.529 6.34852 11.738 6.53885 11.9018C6.72918 12.0656 6.95759 12.179 7.20313 12.2316L9.21219 12.6637L9.56938 13.4062C9.69334 13.6588 9.88545 13.8716 10.124 14.0207C10.3626 14.1698 10.6381 14.2492 10.9194 14.25H11.0581L10.3803 15.7716C10.2609 16.0395 10.2226 16.3365 10.2703 16.626C10.3179 16.9154 10.4494 17.1845 10.6484 17.4L10.6616 17.4131L12.5 19.3069L12.3181 20.2444C10.1636 20.1942 8.11396 19.3041 6.60662 17.7638C5.09927 16.2235 4.25358 14.1551 4.25 12ZM13.8669 20.1356L13.9728 19.5909C14.0164 19.3595 14.0051 19.1211 13.94 18.8949C13.8749 18.6686 13.7577 18.4607 13.5978 18.2878C13.5932 18.2837 13.5888 18.2793 13.5847 18.2747L11.75 16.3819L13.0344 13.5L15.1738 13.7887L19.46 16.425C18.839 17.4002 18.0204 18.2343 17.057 18.8735C16.0936 19.5127 15.0068 19.9426 13.8669 20.1356Z" fill="white"/>
</svg>
