<svg width="91" height="22" viewBox="0 0 91 22" fill="none" xmlns="http://www.w3.org/2000/svg">
<rect x="14.4102" y="8.49463" width="4.3808" height="4.3808" rx="2.1904" fill="#B8EF43"/>
<rect x="0.171875" y="8.49463" width="4.3808" height="4.3808" rx="2.1904" fill="#B8EF43"/>
<rect x="7.28516" y="8.49463" width="4.3808" height="4.3808" rx="2.1904" fill="#B8EF43"/>
<rect x="0.171875" y="15.6135" width="4.3808" height="4.3808" rx="2.1904" fill="#B8EF43"/>
<rect x="7.28516" y="15.6135" width="4.3808" height="4.3808" rx="2.1904" fill="#B8EF43"/>
<path d="M16.6035 15.8599C17.677 15.86 18.5469 16.7307 18.5469 17.8042C18.5467 18.8775 17.6769 19.7474 16.6035 19.7476C15.53 19.7476 14.6593 18.8776 14.6592 17.8042C14.6592 16.7306 15.53 15.8599 16.6035 15.8599ZM16.5967 0.791504C17.1411 1.95052 18.074 2.88408 19.2334 3.4292C18.0751 3.97355 17.1417 4.90617 16.5967 6.06494C16.0521 4.90671 15.1189 3.97397 13.96 3.4292C15.1189 2.8846 16.0518 1.95113 16.5967 0.791504ZM2.3623 1.48486C3.43586 1.48488 4.30566 2.35564 4.30566 3.4292C4.30557 4.50267 3.4358 5.37254 2.3623 5.37256C1.2888 5.37256 0.418064 4.50268 0.417969 3.4292C0.417969 2.35563 1.28874 1.48486 2.3623 1.48486ZM9.48047 1.48486C10.554 1.48493 11.4238 2.35567 11.4238 3.4292C11.4237 4.50265 10.5539 5.37249 9.48047 5.37256C8.40696 5.37256 7.53622 4.50269 7.53613 3.4292C7.53613 2.35563 8.4069 1.48486 9.48047 1.48486Z" stroke="white" stroke-width="0.493071"/>
<path d="M27.7891 11.4158C27.7891 7.23167 29.5355 4.64845 33.574 4.64845C37.6126 4.64845 39.359 7.23167 39.359 11.4158C39.359 15.5999 37.6126 18.1831 33.574 18.1831C29.5355 18.1831 27.7891 15.5999 27.7891 11.4158ZM37.6854 11.4158C37.6854 7.65008 36.1573 6.04921 33.6104 6.04921C30.9908 6.04921 29.4627 7.65008 29.4627 11.4158C29.4627 15.1815 30.9908 16.7823 33.5377 16.7823C36.1573 16.7823 37.6854 15.1815 37.6854 11.4158Z" fill="white"/>
<path d="M41.6368 8.14126H43.1831V15.1087C43.1831 16.1456 43.7107 16.7823 44.8931 16.7823C45.8755 16.7823 47.1489 16.273 48.3859 15.5453V8.14126H49.9322V17.9648H48.6406L48.4951 16.7823C47.0943 17.601 45.6754 18.1831 44.4747 18.1831C42.6374 18.1831 41.6368 17.2189 41.6368 15.3998V8.14126Z" fill="white"/>
<path d="M54.7785 8.14126H57.9257V9.48745H54.7785V15.6544C54.7785 16.5276 55.3788 16.7823 56.0519 16.7823C56.5431 16.7823 57.107 16.6732 57.5618 16.5276V17.892C56.8705 18.0194 56.0155 18.1649 55.3242 18.1649C54.16 18.1649 53.214 17.7647 53.214 16.0183V9.48745H51.8314V8.50509L52.1589 8.14126H53.214V6.9406L54.1418 5.97644H54.7785V8.14126Z" fill="white"/>
<path d="M62.3826 16.8369C63.8925 16.8369 64.6748 16.3093 64.6748 15.1451C64.6748 13.9444 63.7106 13.7989 62.2917 13.5988C60.7818 13.3805 59.0899 13.0166 59.0899 10.8154C59.0899 8.61424 60.8545 7.92296 63.0012 7.92296C63.9471 7.92296 64.9295 8.03211 65.7299 8.15945V9.56021C64.9659 9.43287 63.9471 9.28734 63.1649 9.28734C61.4185 9.28734 60.6908 9.76032 60.6908 10.7427C60.6908 11.9069 61.6368 12.0707 63.0193 12.2526C64.5656 12.4709 66.2757 12.762 66.2757 15.0723C66.2757 17.0552 65.0204 18.1831 62.4736 18.1831C61.3457 18.1831 59.9813 18.0739 59.1445 17.983V16.5458C60.3815 16.7278 61.564 16.8369 62.3826 16.8369Z" fill="white"/>
<path d="M75.6322 8.14126V8.39594C75.6322 10.1969 75.0319 11.8706 73.1035 12.8711L74.1587 14.7449C74.8499 15.9819 75.4867 16.6732 76.5236 16.6732V18.0376C76.3417 18.0739 76.1779 18.0739 75.996 18.0739C74.6134 18.0739 73.6857 17.1098 73.0126 15.8909L71.7028 13.4896L69.9927 14.1991V17.9648H68.4464V4.0845H69.9927V12.8165L71.6482 12.1434C72.7761 11.6705 74.0859 10.9064 74.0859 8.54148V8.14126H75.6322Z" fill="white"/>
<path d="M79.9414 8.14126V17.9648H78.3951V8.14126H79.9414ZM79.9595 4.64845V6.55858H78.3587V4.64845H79.9595Z" fill="white"/>
<path d="M84.4022 4.0845V17.9648H82.8559V4.0845H84.4022Z" fill="white"/>
<path d="M88.9323 4.0845V17.9648H87.386V4.0845H88.9323Z" fill="white"/>
</svg>
