<svg width="40" height="42" viewBox="0 0 40 42" fill="none" xmlns="http://www.w3.org/2000/svg">
<path d="M0 -0.5H18C29.3137 -0.5 34.9706 -0.5 38.4853 3.01472C42 6.52944 42 12.1863 42 23.5V41.5H24C12.6863 41.5 7.02944 41.5 3.51472 37.9853C0 34.4706 0 28.8137 0 17.5V-0.5Z" fill="#323231"/>
<g clip-path="url(#clip0_634_5571)">
<path d="M26.0843 12.5H28.7865L22.8843 19.2911L29.8531 28.5H24.3776L20.1109 22.9178L15.2043 28.5H12.502L18.8309 21.2467L12.1465 12.5H17.7643L21.6398 17.62L26.0843 12.5ZM25.1243 26.8644H26.6176L16.9465 14.0289H15.3109L25.1243 26.8644Z" fill="white"/>
</g>
<defs>
<clipPath id="clip0_634_5571">
<rect width="17.7067" height="16" fill="white" transform="translate(12.1465 12.5)"/>
</clipPath>
</defs>
</svg>
