<svg width="32" height="32" viewBox="0 0 32 32" fill="none" xmlns="http://www.w3.org/2000/svg">
<path d="M28.2375 7.2886L16.2375 3.2886C16.0833 3.23713 15.9167 3.23713 15.7625 3.2886L3.7625 7.2886C3.61327 7.33842 3.48349 7.4339 3.39151 7.56155C3.29954 7.68919 3.25003 7.84252 3.25 7.99985V17.9998C3.25 18.1988 3.32902 18.3895 3.46967 18.5302C3.61032 18.6708 3.80109 18.7498 4 18.7498C4.19891 18.7498 4.38968 18.6708 4.53033 18.5302C4.67098 18.3895 4.75 18.1988 4.75 17.9998V9.03985L9.585 10.6523C8.97528 11.5534 8.56212 12.5728 8.37239 13.6441C8.18266 14.7154 8.22062 15.8146 8.4838 16.8703C8.74698 17.9259 9.22948 18.9144 9.8999 19.7712C10.5703 20.6281 11.4136 21.3342 12.375 21.8436C9.96875 22.6598 7.875 24.2923 6.375 26.5936C6.28878 26.7587 6.2671 26.9501 6.3142 27.1303C6.36129 27.3106 6.47379 27.4668 6.62977 27.5687C6.78576 27.6705 6.97407 27.7107 7.15804 27.6813C7.34201 27.652 7.50847 27.5552 7.625 27.4098C9.55875 24.4486 12.61 22.7498 16 22.7498C19.39 22.7498 22.4412 24.4486 24.375 27.4098C24.4908 27.5583 24.6582 27.6577 24.844 27.6884C25.0297 27.7191 25.2203 27.6789 25.3777 27.5756C25.5351 27.4723 25.6479 27.3136 25.6938 27.131C25.7396 26.9484 25.715 26.7552 25.625 26.5898C24.125 24.2923 22.0338 22.6598 19.625 21.8398C20.5858 21.3299 21.4286 20.6234 22.0984 19.7663C22.7682 18.9091 23.25 17.9206 23.5126 16.865C23.7752 15.8094 23.8126 14.7103 23.6224 13.6393C23.4322 12.5683 23.0187 11.5493 22.4088 10.6486L28.2375 8.7111C28.3866 8.6612 28.5163 8.56568 28.6082 8.43804C28.7001 8.31041 28.7495 8.15712 28.7495 7.99985C28.7495 7.84258 28.7001 7.68929 28.6082 7.56165C28.5163 7.43402 28.3866 7.3385 28.2375 7.2886ZM22.25 14.9998C22.2504 15.9958 22.0129 16.9774 21.5571 17.8629C21.1013 18.7484 20.4406 19.5121 19.6298 20.0905C18.8191 20.6689 17.8819 21.0452 16.8962 21.188C15.9106 21.3308 14.9051 21.236 13.9636 20.9115C13.022 20.587 12.1716 20.0422 11.4833 19.3225C10.7949 18.6028 10.2885 17.729 10.0063 16.7739C9.72401 15.8188 9.67408 14.8101 9.86063 13.8319C10.0472 12.8536 10.4648 11.934 11.0787 11.1498L15.7625 12.7111C15.9167 12.7626 16.0833 12.7626 16.2375 12.7111L20.9212 11.1498C21.7835 12.2478 22.2515 13.6038 22.25 14.9998ZM16 11.2098L6.375 7.99985L16 4.78985L25.625 7.99985L16 11.2098Z" fill="#B8EF43"/>
</svg>
