<?xml version="1.0" encoding="utf-8"?>
<!-- Generator: Adobe Illustrator 23.0.3, SVG Export Plug-In . SVG Version: 6.00 Build 0)  -->
<svg version="1.1" id="Layer_1" xmlns="http://www.w3.org/2000/svg" xmlns:xlink="http://www.w3.org/1999/xlink" x="0px" y="0px"
	 viewBox="0 0 690.17 156.48" style="enable-background:new 0 0 690.17 156.48;" xml:space="preserve">
<style type="text/css">
	.st0{fill:#013C4A;}
	.st1{fill:#028B77;}
	.st2{fill:none;stroke:#028B77;stroke-width:1.0769;stroke-miterlimit:10;}
</style>
<g>
	<g>
		<g>
			<g>
				<path class="st0" d="M54.4,60.04c-0.11,22.68,7.57,43.66,20.63,60.6c0.1-0.12,0.19-0.25,0.28-0.38V0
					C62.27,16.76,54.5,37.52,54.4,60.04"/>
				<path class="st0" d="M161.96,100.65c0,0-19.41,24.81-52.61,24.3c-0.17,0-0.34,0-0.51-0.01c-4.78-0.06-8.69-0.56-11.88-1.32
					c-1.04-0.21-2.09-0.43-3.16-0.7c0,0-11.33,8.82-11.33,26.49H68.84c0,0,3.97-16.78,16.87-31.45
					C99.3,102.53,122.78,89.43,161.96,100.65L161.96,100.65z"/>
				<path class="st0" d="M2.11,44.91c0,0,23.39,3.27,37.76,22.68s14.53,38.37,14.53,38.37S8.3,98.52,2.11,44.91"/>
				<path class="st0" d="M0,109.36c0,0,18.2-9.5,37.95-3.26s29.18,19.31,29.18,19.31S30.76,143.44,0,109.36"/>
				<path class="st1" d="M126.23,29.95c-1.67,8.69-3,9.98-11.87,11.54c8.86,1.64,10.17,2.94,11.77,11.65
					c1.67-8.69,3-9.98,11.87-11.54C129.14,39.95,127.82,38.65,126.23,29.95"/>
				<path class="st1" d="M112.88,60.07c0.96-5,1.73-5.74,6.83-6.64c-5.1-0.94-5.86-1.69-6.77-6.7c-0.96,5-1.73,5.74-6.83,6.64
					C111.21,54.31,111.97,55.06,112.88,60.07"/>
				<path class="st1" d="M111.81,32.25c2.39,0.44,2.75,0.8,3.18,3.15c0.45-2.35,0.81-2.7,3.21-3.12c-2.39-0.44-2.75-0.8-3.18-3.15
					C114.57,31.48,114.21,31.83,111.81,32.25"/>
				<path class="st1" d="M154.02,83.61L154.02,83.61c-19.6-15.98-37.19-15.75-48.5-12.75c-7.01,1.86-12.76,5.07-16.34,7.53
					l0.17-13.56V9.01c3.33,3.2,5.22,7.6,5.22,12.27l0.03,49.23l4.84-2.26L99.21,35.4V21.6c0-6.65-3.01-12.8-8.25-16.88l-6.03-4.7
					l-0.16,64.81L84.7,88.6l4.03-3.79c0.07-0.06,7.1-6.55,18.17-9.46c12.07-3.16,24.19-1.09,36.06,6.16
					c-14.39-1.53-38.14-1.1-54.17,14.43v-2.88h-4.77v16l4.28-5.49c20.15-25.87,63.2-15.98,63.63-15.88l10.02,2.38L154.02,83.61z"/>
				<circle class="st0" cx="80.02" cy="144.27" r="12.21"/>
			</g>
			<g>
				<g>
					<g>
						<path class="st0" d="M238,75.75l3.84,7.67h-34.62c-13.49,0-20.23-6.74-20.23-20.23V45.92c0-13.49,6.74-20.23,20.23-20.23
							h33.66l-3.84,7.67h-27.9c-8.37,0-12.56,4.19-12.56,12.56v17.27c0,8.37,4.19,12.56,12.56,12.56H238z"/>
						<path class="st0" d="M292.86,44.79c2.56,3.2,3.63,6.8,3.23,10.81v27.82H285.1V78.1c-4.59,3.49-9.74,5.26-15.43,5.32h-12.83
							c-3.84,0.12-7.15-1.19-9.94-3.92c-2.56-2.38-3.84-5.32-3.84-8.81c-0.06-3.6,1.22-6.66,3.84-9.16
							c2.67-2.96,6.02-4.5,10.03-4.62h28.17v-0.35c0-1.8-0.67-3.31-2.01-4.53c-1.4-1.4-3.05-2.06-4.97-2.01h-32.27l2.27-8.46h35.49
							C287.16,41.33,290.24,42.41,292.86,44.79z M285.09,69.91v-5.93h-24.42c-1.8,0-3.34,0.64-4.62,1.92
							c-1.22,1.22-1.83,2.7-1.83,4.45c0,1.69,0.58,3.17,1.74,4.45c1.4,1.28,3.02,1.92,4.88,1.92h8.28
							C275.3,76.48,280.62,74.21,285.09,69.91z"/>
						<path class="st0" d="M345.61,46.45c2.91,3.26,4.42,7.06,4.53,11.42v25.55h-10.9V58.48c0.12-2.38-0.7-4.39-2.44-6.02
							c-1.8-1.63-3.9-2.38-6.28-2.27h-5.76c-3.49,0.06-6.42,1.34-8.81,3.84c-2.39,2.5-3.55,5.49-3.49,8.98v20.41h-10.81V50.2
							l10.9-8.63v7.41l1.74-2.44c0.58-0.99,1.31-1.86,2.18-2.62s1.86-1.34,2.97-1.74c1.1-0.41,2.24-0.61,3.4-0.61h10.99
							c1.45-0.12,2.91,0,4.36,0.35c1.45,0.35,2.8,0.91,4.06,1.7C343.5,44.4,344.62,45.34,345.61,46.45z"/>
						<path class="st0" d="M399.33,46.45c2.91,3.26,4.42,7.06,4.53,11.42v25.55h-10.9V58.48c0.12-2.38-0.7-4.39-2.44-6.02
							c-1.8-1.63-3.9-2.38-6.28-2.27h-5.76c-3.49,0.06-6.42,1.34-8.81,3.84c-2.38,2.5-3.55,5.49-3.49,8.98v20.41h-10.81V50.2
							l10.9-8.63v7.41l1.74-2.44c0.58-0.99,1.31-1.86,2.18-2.62s1.86-1.34,2.96-1.74c1.1-0.41,2.24-0.61,3.4-0.61h10.99
							c1.45-0.12,2.91,0,4.36,0.35c1.45,0.35,2.8,0.91,4.06,1.7C397.22,44.4,398.34,45.34,399.33,46.45z"/>
						<path class="st0" d="M457.5,44.79c2.56,3.2,3.63,6.8,3.23,10.81v27.82h-10.99V78.1c-4.59,3.49-9.74,5.26-15.44,5.32h-12.82
							c-3.84,0.12-7.15-1.19-9.94-3.92c-2.56-2.38-3.84-5.32-3.84-8.81c-0.06-3.6,1.22-6.66,3.84-9.16
							c2.67-2.96,6.02-4.5,10.03-4.62h28.17v-0.35c0-1.8-0.67-3.31-2.01-4.53c-1.4-1.4-3.05-2.06-4.97-2.01h-32.27l2.27-8.46h35.49
							C451.8,41.33,454.88,42.41,457.5,44.79z M449.73,69.91v-5.93h-24.42c-1.8,0-3.34,0.64-4.62,1.92
							c-1.22,1.22-1.83,2.7-1.83,4.45c0,1.69,0.58,3.17,1.74,4.45c1.39,1.28,3.02,1.92,4.88,1.92h8.28
							C439.94,76.48,445.26,74.21,449.73,69.91z"/>
						<path class="st0" d="M466.74,32.93l12.12-7.24v57.73h-12.12V32.93z"/>
						<path class="st0" d="M535.37,45.93c3.2,2.56,4.77,5.9,4.71,10.03v12.99c0,4.07-1.57,7.38-4.71,9.94
							c-3.2,2.96-6.95,4.42-11.25,4.36h-23.98c-4.36,0.06-8.14-1.4-11.34-4.36c-0.99-0.81-1.83-1.76-2.53-2.83s-1.24-2.22-1.61-3.44
							c-0.38-1.22-0.57-2.47-0.57-3.75V55.96c0-4.07,1.57-7.41,4.71-10.03c3.14-2.96,6.86-4.42,11.16-4.36h24.24
							C528.51,41.51,532.23,42.96,535.37,45.93z M529.44,67.03v-9.42c0-2.15-0.78-3.95-2.35-5.41c-1.69-1.74-3.75-2.56-6.19-2.44
							h-17.53c-2.44-0.12-4.53,0.7-6.28,2.44c-1.57,1.51-2.35,3.34-2.35,5.49v9.24c0.06,2.15,0.84,3.98,2.35,5.49
							c1.74,1.69,3.84,2.5,6.28,2.44h17.53c2.44,0.12,4.5-0.7,6.19-2.44C528.65,70.98,529.44,69.18,529.44,67.03z"/>
						<path class="st0" d="M586.82,41.57h10.46v47.96v0.09c0.52,3.66-0.47,6.89-2.96,9.68c-2.44,2.27-5.29,3.28-8.55,3.05h-39.85
							l2.7-7.59h31.92c1.74,0.06,3.26-0.52,4.53-1.74c1.16-0.99,1.74-2.27,1.74-3.84V78.72c-0.93,1.4-2.14,2.5-3.62,3.31
							c-1.48,0.82-3.04,1.28-4.67,1.4h-18.49c-4.24,0.06-7.88-1.37-10.9-4.27c-3.14-2.56-4.71-5.81-4.71-9.77V55.7
							c0-4.01,1.54-7.3,4.62-9.85c3.14-2.91,6.83-4.33,11.07-4.27h16.66c2.15,0.06,4.13,0.7,5.93,1.92s3.14,2.82,4.01,4.8
							L586.82,41.57z M586.82,66.07v-7.32c0-2.44-0.87-4.53-2.62-6.28c-1.74-1.74-3.84-2.62-6.28-2.62h-14.56
							c-2.27-0.12-4.27,0.55-6.02,2.01c-1.74,1.51-2.56,3.4-2.44,5.67v10.2c-0.06,2.21,0.76,4.07,2.44,5.58
							c1.74,1.45,3.75,2.12,6.02,2.01h14.21c2.56,0,4.74-0.9,6.54-2.7C585.92,70.81,586.82,68.63,586.82,66.07z"/>
						<path class="st0" d="M613.07,35.2c-1.05,1.05-2.34,1.57-3.88,1.57s-2.85-0.54-3.92-1.61c-1.08-1.07-1.61-2.38-1.61-3.92
							c0-1.54,0.54-2.85,1.61-3.92c1.08-1.07,2.38-1.61,3.92-1.61s2.85,0.54,3.92,1.61c1.08,1.08,1.61,2.38,1.61,3.92
							C614.72,32.77,614.17,34.1,613.07,35.2z M614.72,83.42h-11.07V41.56h11.07V83.42z"/>
						<path class="st0" d="M640.36,74.53h25.81l2.88,8.89h-32.09c-4.59,0.06-8.58-1.48-11.95-4.62c-3.31-2.79-5-6.37-5.06-10.73
							V56.91c0-4.36,1.69-7.94,5.06-10.73c3.31-3.14,7.27-4.68,11.86-4.62h32.18l-2.96,8.81h-25.73c-2.44-0.12-4.59,0.64-6.45,2.27
							s-2.73,3.69-2.62,6.19v7.32c-0.12,2.5,0.76,4.57,2.62,6.19C635.83,73.86,637.98,74.59,640.36,74.53z"/>
					</g>
				</g>
				<g>
					<g>
						<g>
							<path class="st1" d="M260.1,118.23l-3.87,12.35h-1.58l-3.41-10.36l-3.41,10.36h-1.61l-3.87-12.35h1.61l3.07,10.74l3.46-10.74
								h1.58l3.41,10.76l3.05-10.76H260.1z"/>
							<path class="st1" d="M272.91,118.6c0.75,0.39,1.33,0.99,1.76,1.8c0.43,0.81,0.64,1.79,0.64,2.95v7.24h-1.56v-7.06
								c0-1.34-0.34-2.37-1.01-3.08s-1.59-1.06-2.75-1.06c-1.19,0-2.14,0.38-2.85,1.13s-1.06,1.86-1.06,3.32v6.74h-1.58v-16.73h1.58
								v6.49c0.39-0.74,0.97-1.31,1.73-1.72s1.62-0.61,2.57-0.61C271.32,118.01,272.16,118.2,272.91,118.6z"/>
							<path class="st1" d="M292.21,125.02h-10.24c0.05,0.93,0.27,1.73,0.68,2.4c0.41,0.66,0.94,1.17,1.61,1.5
								c0.66,0.34,1.39,0.51,2.17,0.51c1.02,0,1.89-0.25,2.59-0.75c0.7-0.5,1.16-1.17,1.39-2.01h1.67c-0.3,1.21-0.95,2.19-1.93,2.95
								s-2.23,1.14-3.72,1.14c-1.16,0-2.2-0.26-3.12-0.78c-0.92-0.52-1.64-1.26-2.16-2.22s-0.78-2.08-0.78-3.36s0.26-2.4,0.77-3.37
								c0.51-0.96,1.23-1.7,2.15-2.22c0.92-0.51,1.97-0.77,3.14-0.77c1.18,0,2.2,0.26,3.09,0.77c0.88,0.51,1.56,1.2,2.03,2.07
								c0.48,0.87,0.71,1.83,0.71,2.88C292.26,124.32,292.24,124.73,292.21,125.02z M290.1,121.38c-0.38-0.65-0.91-1.14-1.57-1.47
								s-1.39-0.5-2.17-0.5c-1.18,0-2.18,0.38-3.01,1.13c-0.83,0.75-1.29,1.82-1.38,3.19h8.68
								C290.66,122.81,290.48,122.03,290.1,121.38z"/>
							<path class="st1" d="M300.59,118.64c0.72-0.42,1.59-0.63,2.63-0.63v1.65h-0.43c-1.15,0-2.07,0.31-2.76,0.93
								s-1.04,1.65-1.04,3.1v6.9h-1.58v-12.35h1.58v2.19C299.34,119.66,299.87,119.06,300.59,118.64z"/>
							<path class="st1" d="M318.99,125.02h-10.24c0.05,0.93,0.27,1.73,0.68,2.4c0.41,0.66,0.94,1.17,1.61,1.5
								c0.66,0.34,1.39,0.51,2.17,0.51c1.02,0,1.89-0.25,2.59-0.75c0.7-0.5,1.16-1.17,1.39-2.01h1.67c-0.3,1.21-0.95,2.19-1.93,2.95
								s-2.23,1.14-3.72,1.14c-1.16,0-2.2-0.26-3.12-0.78c-0.92-0.52-1.64-1.26-2.16-2.22s-0.78-2.08-0.78-3.36s0.26-2.4,0.77-3.37
								c0.51-0.96,1.23-1.7,2.15-2.22c0.92-0.51,1.97-0.77,3.14-0.77c1.18,0,2.2,0.26,3.09,0.77c0.88,0.51,1.56,1.2,2.03,2.07
								c0.48,0.87,0.71,1.83,0.71,2.88C319.03,124.32,319.02,124.73,318.99,125.02z M316.87,121.38c-0.38-0.65-0.91-1.14-1.57-1.47
								s-1.39-0.5-2.17-0.5c-1.18,0-2.18,0.38-3.01,1.13c-0.83,0.75-1.29,1.82-1.38,3.19h8.68
								C317.44,122.81,317.26,122.03,316.87,121.38z"/>
							<path class="st1" d="M333.42,129.78c-0.9-0.66-1.4-1.55-1.5-2.68h1.63c0.07,0.69,0.4,1.26,0.98,1.68
								c0.58,0.43,1.36,0.64,2.34,0.64c0.86,0,1.53-0.2,2.02-0.61s0.74-0.91,0.74-1.52c0-0.42-0.14-0.77-0.41-1.04
								c-0.27-0.27-0.61-0.49-1.03-0.64c-0.42-0.16-0.98-0.33-1.68-0.51c-0.92-0.24-1.67-0.48-2.24-0.72
								c-0.57-0.24-1.06-0.6-1.46-1.07s-0.6-1.11-0.6-1.91c0-0.6,0.18-1.16,0.54-1.67c0.36-0.51,0.87-0.92,1.54-1.22
								s1.42-0.45,2.26-0.45c1.33,0,2.4,0.34,3.21,1.01s1.25,1.59,1.31,2.77h-1.58c-0.05-0.72-0.33-1.31-0.85-1.75
								c-0.52-0.44-1.23-0.67-2.14-0.67c-0.8,0-1.45,0.19-1.95,0.57s-0.75,0.84-0.75,1.4c0,0.48,0.15,0.88,0.44,1.19
								s0.66,0.55,1.1,0.72s1.03,0.37,1.76,0.58c0.89,0.24,1.6,0.48,2.13,0.7c0.53,0.23,0.98,0.56,1.36,0.99
								c0.38,0.44,0.57,1.02,0.59,1.74c0,0.66-0.18,1.25-0.54,1.78c-0.36,0.52-0.87,0.93-1.52,1.23s-1.39,0.45-2.24,0.45
								C335.48,130.76,334.32,130.43,333.42,129.78z"/>
							<path class="st1" d="M346.48,121.05c0.51-0.96,1.22-1.7,2.13-2.22c0.9-0.52,1.94-0.78,3.1-0.78c1.52,0,2.78,0.38,3.76,1.13
								s1.62,1.78,1.91,3.08h-1.7c-0.21-0.89-0.67-1.59-1.37-2.09c-0.7-0.5-1.57-0.76-2.61-0.76c-0.83,0-1.58,0.19-2.24,0.57
								s-1.19,0.94-1.57,1.68c-0.38,0.75-0.58,1.66-0.58,2.75s0.19,2.01,0.58,2.76c0.38,0.75,0.91,1.32,1.57,1.7
								s1.41,0.56,2.24,0.56c1.04,0,1.91-0.25,2.61-0.76c0.7-0.5,1.16-1.21,1.37-2.11h1.7c-0.29,1.27-0.93,2.28-1.92,3.05
								c-1,0.77-2.25,1.15-3.75,1.15c-1.16,0-2.19-0.26-3.1-0.78c-0.9-0.52-1.61-1.26-2.13-2.22c-0.51-0.96-0.77-2.08-0.77-3.36
								C345.71,123.13,345.97,122.01,346.48,121.05z"/>
							<path class="st1" d="M362.54,115.57c-0.23-0.23-0.34-0.5-0.34-0.84s0.11-0.61,0.34-0.83s0.5-0.33,0.81-0.33
								c0.32,0,0.59,0.11,0.81,0.33c0.23,0.22,0.34,0.49,0.34,0.83s-0.11,0.61-0.34,0.84s-0.5,0.34-0.81,0.34
								S362.77,115.79,362.54,115.57z M364.15,118.23v12.35h-1.58v-12.35H364.15z"/>
							<path class="st1" d="M381.13,125.02h-10.24c0.05,0.93,0.27,1.73,0.68,2.4c0.41,0.66,0.94,1.17,1.61,1.5
								c0.66,0.34,1.39,0.51,2.17,0.51c1.02,0,1.89-0.25,2.59-0.75c0.7-0.5,1.16-1.17,1.39-2.01H381c-0.3,1.21-0.95,2.19-1.93,2.95
								s-2.23,1.14-3.72,1.14c-1.16,0-2.2-0.26-3.12-0.78c-0.92-0.52-1.64-1.26-2.16-2.22s-0.78-2.08-0.78-3.36s0.26-2.4,0.77-3.37
								c0.51-0.96,1.23-1.7,2.15-2.22c0.92-0.51,1.97-0.77,3.14-0.77c1.18,0,2.2,0.26,3.09,0.77c0.88,0.51,1.56,1.2,2.03,2.07
								c0.48,0.87,0.71,1.83,0.71,2.88C381.17,124.32,381.16,124.73,381.13,125.02z M379.01,121.38c-0.38-0.65-0.91-1.14-1.57-1.47
								s-1.39-0.5-2.17-0.5c-1.18,0-2.18,0.38-3.01,1.13c-0.83,0.75-1.29,1.82-1.38,3.19h8.68
								C379.58,122.81,379.4,122.03,379.01,121.38z"/>
							<path class="st1" d="M395.74,119.38c0.93,0.91,1.4,2.23,1.4,3.97v7.24h-1.56v-7.06c0-1.34-0.34-2.37-1.01-3.08
								s-1.59-1.06-2.75-1.06c-1.19,0-2.14,0.38-2.85,1.13s-1.06,1.86-1.06,3.32v6.74h-1.58v-12.35h1.58v2.1
								c0.39-0.75,0.96-1.33,1.7-1.73s1.58-0.6,2.51-0.6C393.6,118.01,394.8,118.46,395.74,119.38z"/>
							<path class="st1" d="M402.95,121.05c0.51-0.96,1.22-1.7,2.13-2.22c0.9-0.52,1.94-0.78,3.1-0.78c1.52,0,2.78,0.38,3.76,1.13
								s1.62,1.78,1.91,3.08h-1.7c-0.21-0.89-0.67-1.59-1.37-2.09c-0.7-0.5-1.57-0.76-2.61-0.76c-0.83,0-1.58,0.19-2.24,0.57
								s-1.19,0.94-1.57,1.68c-0.38,0.75-0.58,1.66-0.58,2.75s0.19,2.01,0.58,2.76c0.38,0.75,0.91,1.32,1.57,1.7
								s1.41,0.56,2.24,0.56c1.04,0,1.91-0.25,2.61-0.76c0.7-0.5,1.16-1.21,1.37-2.11h1.7c-0.29,1.27-0.93,2.28-1.92,3.05
								c-1,0.77-2.25,1.15-3.75,1.15c-1.16,0-2.19-0.26-3.1-0.78c-0.9-0.52-1.61-1.26-2.13-2.22c-0.51-0.96-0.77-2.08-0.77-3.36
								C402.18,123.13,402.44,122.01,402.95,121.05z"/>
							<path class="st1" d="M430.16,125.02h-10.24c0.05,0.93,0.27,1.73,0.68,2.4c0.41,0.66,0.94,1.17,1.61,1.5
								c0.66,0.34,1.39,0.51,2.17,0.51c1.02,0,1.89-0.25,2.59-0.75c0.7-0.5,1.16-1.17,1.39-2.01h1.67c-0.3,1.21-0.95,2.19-1.93,2.95
								s-2.23,1.14-3.72,1.14c-1.16,0-2.2-0.26-3.12-0.78c-0.92-0.52-1.64-1.26-2.16-2.22s-0.78-2.08-0.78-3.36s0.26-2.4,0.77-3.37
								c0.51-0.96,1.23-1.7,2.15-2.22c0.92-0.51,1.97-0.77,3.14-0.77c1.18,0,2.2,0.26,3.09,0.77c0.88,0.51,1.56,1.2,2.03,2.07
								c0.48,0.87,0.71,1.83,0.71,2.88C430.2,124.32,430.19,124.73,430.16,125.02z M428.04,121.38c-0.38-0.65-0.91-1.14-1.57-1.47
								s-1.39-0.5-2.17-0.5c-1.18,0-2.18,0.38-3.01,1.13c-0.83,0.75-1.29,1.82-1.38,3.19h8.68
								C428.61,122.81,428.43,122.03,428.04,121.38z"/>
							<path class="st1" d="M462.05,119.38c0.91,0.91,1.37,2.23,1.37,3.97v7.24h-1.56v-7.06c0-1.34-0.32-2.37-0.97-3.08
								s-1.53-1.06-2.65-1.06c-1.16,0-2.09,0.38-2.78,1.15s-1.04,1.88-1.04,3.35v6.69h-1.56v-7.06c0-1.34-0.32-2.37-0.97-3.08
								s-1.54-1.06-2.67-1.06c-1.16,0-2.09,0.38-2.78,1.15s-1.04,1.88-1.04,3.35v6.69h-1.58v-12.35h1.58v2.13
								c0.39-0.77,0.95-1.35,1.67-1.75s1.53-0.6,2.42-0.6c1.07,0,2.01,0.26,2.82,0.77s1.39,1.27,1.75,2.26
								c0.33-0.98,0.9-1.73,1.71-2.25s1.72-0.78,2.75-0.78C459.96,118.01,461.14,118.46,462.05,119.38z"/>
							<path class="st1" d="M480.31,125.02h-10.24c0.05,0.93,0.27,1.73,0.68,2.4c0.41,0.66,0.94,1.17,1.61,1.5
								c0.66,0.34,1.39,0.51,2.17,0.51c1.03,0,1.89-0.25,2.59-0.75s1.17-1.17,1.39-2.01h1.67c-0.3,1.21-0.95,2.19-1.93,2.95
								s-2.23,1.14-3.72,1.14c-1.16,0-2.2-0.26-3.12-0.78s-1.64-1.26-2.16-2.22c-0.52-0.96-0.78-2.08-0.78-3.36s0.26-2.4,0.77-3.37
								c0.51-0.96,1.23-1.7,2.15-2.22c0.92-0.51,1.97-0.77,3.14-0.77s2.21,0.26,3.09,0.77c0.88,0.51,1.56,1.2,2.04,2.07
								c0.47,0.87,0.71,1.83,0.71,2.88C480.36,124.32,480.34,124.73,480.31,125.02z M478.2,121.38c-0.38-0.65-0.91-1.14-1.57-1.47
								s-1.39-0.5-2.17-0.5c-1.18,0-2.18,0.38-3.01,1.13s-1.29,1.82-1.38,3.19h8.68C478.77,122.81,478.58,122.03,478.2,121.38z"/>
							<path class="st1" d="M496.64,125.02H486.4c0.05,0.93,0.27,1.73,0.68,2.4c0.41,0.66,0.94,1.17,1.61,1.5
								c0.66,0.34,1.39,0.51,2.17,0.51c1.02,0,1.89-0.25,2.59-0.75s1.16-1.17,1.39-2.01h1.67c-0.3,1.21-0.95,2.19-1.93,2.95
								s-2.23,1.14-3.72,1.14c-1.16,0-2.2-0.26-3.12-0.78s-1.64-1.26-2.16-2.22c-0.52-0.96-0.78-2.08-0.78-3.36s0.26-2.4,0.77-3.37
								c0.51-0.96,1.23-1.7,2.15-2.22c0.92-0.51,1.97-0.77,3.14-0.77c1.18,0,2.2,0.26,3.09,0.77c0.88,0.51,1.56,1.2,2.03,2.07
								s0.71,1.83,0.71,2.88C496.69,124.32,496.67,124.73,496.64,125.02z M494.53,121.38c-0.38-0.65-0.91-1.14-1.57-1.47
								s-1.39-0.5-2.17-0.5c-1.18,0-2.18,0.38-3.01,1.13s-1.29,1.82-1.38,3.19h8.68C495.1,122.81,494.91,122.03,494.53,121.38z"/>
							<path class="st1" d="M503.9,119.57v7.67c0,0.75,0.14,1.27,0.43,1.56s0.79,0.43,1.52,0.43h1.45v1.36h-1.7
								c-1.12,0-1.94-0.26-2.49-0.78c-0.54-0.52-0.82-1.38-0.82-2.57v-7.67h-1.72v-1.33h1.72v-3.1h1.61v3.1h3.39v1.33H503.9
								L503.9,119.57z"/>
							<path class="st1" d="M512.93,129.78c-0.9-0.66-1.4-1.55-1.5-2.68h1.63c0.08,0.69,0.4,1.26,0.98,1.68
								c0.58,0.43,1.36,0.64,2.34,0.64c0.86,0,1.53-0.2,2.02-0.61s0.74-0.91,0.74-1.52c0-0.42-0.14-0.77-0.41-1.04
								c-0.27-0.27-0.61-0.49-1.03-0.64c-0.42-0.16-0.98-0.33-1.68-0.51c-0.92-0.24-1.67-0.48-2.24-0.72
								c-0.57-0.24-1.06-0.6-1.46-1.07c-0.4-0.47-0.6-1.11-0.6-1.91c0-0.6,0.18-1.16,0.54-1.67c0.36-0.51,0.87-0.92,1.54-1.22
								c0.67-0.3,1.42-0.45,2.26-0.45c1.33,0,2.4,0.34,3.21,1.01s1.25,1.59,1.31,2.77H519c-0.05-0.72-0.33-1.31-0.85-1.75
								c-0.52-0.44-1.23-0.67-2.14-0.67c-0.8,0-1.45,0.19-1.95,0.57s-0.75,0.84-0.75,1.4c0,0.48,0.15,0.88,0.44,1.19
								c0.29,0.31,0.66,0.55,1.1,0.72s1.03,0.37,1.76,0.58c0.89,0.24,1.6,0.48,2.13,0.7c0.53,0.23,0.98,0.56,1.36,0.99
								c0.38,0.44,0.57,1.02,0.59,1.74c0,0.66-0.18,1.25-0.54,1.78c-0.36,0.52-0.87,0.93-1.52,1.23s-1.39,0.45-2.24,0.45
								C514.99,130.76,513.83,130.43,512.93,129.78z"/>
							<path class="st1" d="M543.81,119.38c0.93,0.91,1.4,2.23,1.4,3.97v7.24h-1.56v-7.06c0-1.34-0.34-2.37-1.01-3.08
								s-1.59-1.06-2.75-1.06c-1.19,0-2.14,0.38-2.85,1.13c-0.71,0.75-1.06,1.86-1.06,3.32v6.74h-1.58v-12.35h1.58v2.1
								c0.39-0.75,0.96-1.33,1.7-1.73s1.58-0.6,2.51-0.6C541.67,118.01,542.88,118.46,543.81,119.38z"/>
							<path class="st1" d="M551.02,121.05c0.5-0.96,1.21-1.7,2.1-2.22c0.9-0.52,1.91-0.78,3.04-0.78c1.18,0,2.19,0.27,3.04,0.81
								s1.47,1.24,1.84,2.08v-2.71h1.58v12.35h-1.58v-2.74c-0.39,0.84-1.01,1.54-1.87,2.09c-0.85,0.55-1.87,0.83-3.04,0.83
								c-1.12,0-2.12-0.26-3.02-0.79s-1.6-1.27-2.1-2.24c-0.51-0.96-0.76-2.08-0.76-3.35C550.26,123.12,550.51,122.01,551.02,121.05
								z M560.43,121.78c-0.41-0.75-0.96-1.33-1.66-1.74c-0.7-0.41-1.47-0.61-2.32-0.61c-0.87,0-1.66,0.2-2.35,0.59
								s-1.24,0.96-1.64,1.71s-0.6,1.63-0.6,2.66c0,1.01,0.2,1.9,0.6,2.66c0.4,0.76,0.95,1.34,1.64,1.74s1.48,0.6,2.35,0.6
								c0.84,0,1.62-0.2,2.32-0.61s1.26-0.99,1.66-1.74c0.41-0.75,0.61-1.63,0.61-2.62C561.05,123.41,560.84,122.54,560.43,121.78z"
								/>
							<path class="st1" d="M570.57,119.57v7.67c0,0.75,0.14,1.27,0.43,1.56s0.79,0.43,1.52,0.43h1.45v1.36h-1.7
								c-1.12,0-1.94-0.26-2.49-0.78c-0.54-0.52-0.82-1.38-0.82-2.57v-7.67h-1.72v-1.33h1.72v-3.1h1.61v3.1h3.39v1.33H570.57
								L570.57,119.57z"/>
							<path class="st1" d="M589.52,118.23v12.35h-1.58v-2.17c-0.36,0.77-0.92,1.36-1.67,1.76s-1.6,0.61-2.53,0.61
								c-1.48,0-2.68-0.46-3.62-1.37c-0.93-0.91-1.4-2.24-1.4-3.97v-7.21h1.56v7.03c0,1.34,0.33,2.37,1.01,3.07
								c0.67,0.71,1.59,1.06,2.75,1.06c1.19,0,2.14-0.38,2.85-1.13c0.71-0.75,1.06-1.86,1.06-3.32v-6.72h1.57L589.52,118.23
								L589.52,118.23z"/>
							<path class="st1" d="M598.57,118.64c0.72-0.42,1.59-0.63,2.63-0.63v1.65h-0.43c-1.15,0-2.07,0.31-2.76,0.93
								s-1.04,1.65-1.04,3.1v6.9h-1.58v-12.35h1.58v2.19C597.32,119.66,597.86,119.06,598.57,118.64z"/>
							<path class="st1" d="M616.97,125.02h-10.24c0.05,0.93,0.27,1.73,0.68,2.4c0.41,0.66,0.94,1.17,1.61,1.5
								c0.66,0.34,1.39,0.51,2.17,0.51c1.03,0,1.89-0.25,2.59-0.75s1.17-1.17,1.39-2.01h1.67c-0.3,1.21-0.95,2.19-1.93,2.95
								c-0.99,0.76-2.23,1.14-3.72,1.14c-1.16,0-2.2-0.26-3.12-0.78s-1.64-1.26-2.16-2.22c-0.52-0.96-0.78-2.08-0.78-3.36
								s0.26-2.4,0.77-3.37c0.51-0.96,1.23-1.7,2.15-2.22s1.97-0.77,3.14-0.77s2.21,0.26,3.09,0.77c0.88,0.51,1.56,1.2,2.03,2.07
								c0.48,0.87,0.71,1.83,0.71,2.88C617.01,124.32,617,124.73,616.97,125.02z M614.86,121.38c-0.38-0.65-0.91-1.14-1.57-1.47
								c-0.66-0.33-1.39-0.5-2.17-0.5c-1.18,0-2.18,0.38-3.01,1.13s-1.29,1.82-1.38,3.19h8.68
								C615.42,122.81,615.24,122.03,614.86,121.38z"/>
						</g>
					</g>
					<g>
						<line class="st2" x1="224.29" y1="125.19" x2="216.12" y2="125.19"/>
						<line class="st2" x1="235.68" y1="125.19" x2="227.51" y2="125.19"/>
						<line class="st2" x1="212.6" y1="125.19" x2="204.43" y2="125.19"/>
						<line class="st2" x1="200.91" y1="125.19" x2="192.74" y2="125.19"/>
						<g>
							<line class="st2" x1="666.63" y1="125.19" x2="658.46" y2="125.19"/>
							<line class="st2" x1="654.94" y1="125.19" x2="646.77" y2="125.19"/>
							<line class="st2" x1="643.25" y1="125.19" x2="635.08" y2="125.19"/>
							<line class="st2" x1="631.37" y1="125.19" x2="623.2" y2="125.19"/>
						</g>
					</g>
				</g>
			</g>
		</g>
	</g>
	<g>
		<g>
			<g>
				<path class="st1" d="M678.77,28.63h-2.98v8.11h-2.01v-8.11h-2.94V27h7.93V28.63z"/>
				<path class="st1" d="M682.54,27.01l2.5,7.06l2.49-7.06h2.64v9.74h-2.01v-2.66l0.2-4.59l-2.63,7.26h-1.38l-2.62-7.25l0.2,4.59
					v2.66h-2.01v-9.74h2.62V27.01z"/>
			</g>
		</g>
	</g>
</g>
</svg>
